<?xml version="1.0" standalone="no"?>
<!DOCTYPE svg PUBLIC "-//W3C//DTD SVG 20010904//EN"
 "http://www.w3.org/TR/2001/REC-SVG-20010904/DTD/svg10.dtd">
<svg version="1.0" xmlns="http://www.w3.org/2000/svg"
 width="16.000000pt" height="16.000000pt" viewBox="0 0 16.000000 16.000000"
 preserveAspectRatio="xMidYMid meet">
<metadata>
Created by potrace 1.11, written by Peter Selinger 2001-2013
</metadata>
<g transform="translate(0.000000,16.000000) scale(0.003125,-0.003125)"
fill="#000000" stroke="none">
<path d="M342 4353 l-32 -13 2 -1698 3 -1697 28 -60 c21 -44 25 -61 15 -64
-18 -6 -78 -67 -78 -79 0 -29 55 -73 115 -91 261 -81 1739 -132 2890 -101 929
26 1371 67 1462 136 42 32 45 73 8 102 l-26 20 -61 -31 -61 -32 -616 -3 c-360
-2 -705 1 -831 8 -423 21 -819 40 -1050 50 -129 6 -347 17 -485 25 -137 8
-331 20 -430 25 -99 6 -205 13 -235 15 -30 2 -109 7 -175 10 -66 4 -129 10
-140 15 -11 5 -46 16 -78 25 -54 15 -59 19 -77 60 -10 24 -22 61 -26 82 -4 21
-10 43 -14 48 -10 13 -18 129 -25 360 -3 105 -8 235 -10 290 -9 169 -24 1320
-26 1890 -1 297 -4 581 -8 631 l-6 91 -33 -14z"/>
<path d="M730 3555 l0 -475 1830 0 1830 0 0 475 0 475 -1830 0 -1830 0 0 -475z
m1131 80 c90 -123 168 -224 173 -225 13 0 2 351 -12 377 -7 13 -30 28 -52 34
-22 7 -40 18 -40 26 0 10 27 13 125 13 100 0 125 -3 125 -14 0 -8 -15 -17 -35
-20 -63 -12 -65 -20 -65 -313 l0 -263 -22 0 c-18 0 -61 51 -203 245 l-180 244
-3 -177 c-2 -104 1 -192 8 -213 10 -35 19 -42 83 -63 9 -3 17 -12 17 -21 0
-13 -19 -15 -126 -15 -110 0 -125 2 -122 16 2 9 19 22 38 28 55 18 60 37 60
262 0 187 -1 203 -20 227 -11 14 -36 32 -55 38 -19 7 -35 19 -35 26 0 10 23
13 88 13 l89 0 164 -225z m647 28 c39 -29 62 -73 69 -132 l6 -51 -142 0 -141
0 0 -32 c0 -40 30 -106 58 -132 13 -11 43 -21 72 -24 48 -4 52 -3 91 36 24 24
46 39 55 35 22 -8 17 -20 -25 -62 -48 -48 -98 -65 -164 -58 -109 13 -172 94
-171 222 0 51 6 81 21 110 26 50 71 93 109 105 46 15 131 6 162 -17z m992 18
c14 -4 33 -3 42 3 24 14 28 7 35 -68 5 -56 3 -66 -10 -66 -8 0 -24 17 -34 38
-35 72 -129 89 -163 29 -13 -24 -13 -28 5 -53 13 -17 48 -37 95 -55 94 -36
130 -72 130 -130 0 -55 -26 -95 -75 -119 -49 -24 -102 -25 -152 -5 -25 11 -40
12 -47 5 -27 -27 -36 -10 -36 65 0 86 14 98 43 35 24 -52 68 -83 118 -83 50 0
79 25 79 68 0 41 -20 58 -105 89 -89 32 -125 69 -125 129 0 94 93 149 200 118z
m-710 -17 c0 -9 -9 -18 -20 -21 -11 -3 -20 -10 -20 -16 0 -25 74 -247 81 -240
3 5 28 70 55 146 42 119 51 137 70 137 19 0 28 -19 74 -145 29 -80 55 -144 57
-142 8 8 73 212 73 229 0 10 -11 24 -25 30 -14 6 -25 17 -25 25 0 10 20 13 80
13 89 0 101 -11 48 -45 -29 -18 -38 -38 -92 -203 -78 -233 -79 -234 -153 -37
-28 77 -53 144 -56 150 -2 5 -28 -58 -59 -140 -76 -206 -77 -206 -152 22 -32
98 -63 184 -69 192 -6 7 -21 17 -34 22 -13 5 -23 15 -23 24 0 12 17 15 95 15
80 0 95 -2 95 -16z"/>
<path d="M2371 3647 c-34 -17 -61 -56 -68 -100 l-6 -37 97 0 96 0 0 35 c0 47
-25 94 -56 105 -32 12 -34 12 -63 -3z"/>
<path d="M730 3002 l0 -22 1830 0 c1620 0 1830 2 1830 15 0 13 -86 15 -718 15
-395 0 -1219 3 -1830 7 l-1112 6 0 -21z"/>
<path d="M1222 2720 c0 -19 2 -27 5 -17 2 9 2 25 0 35 -3 9 -5 1 -5 -18z"/>
<path d="M1460 2725 c-1 -26 -3 -27 -10 -10 -7 16 -9 17 -9 3 -1 -9 4 -20 9
-23 13 -8 23 18 17 42 -3 11 -5 7 -7 -12z"/>
<path d="M1522 2725 c0 -16 2 -22 5 -12 2 9 2 23 0 30 -3 6 -5 -1 -5 -18z"/>
<path d="M2060 2260 l0 -490 500 0 500 0 0 490 0 490 -500 0 -500 0 0 -490z"/>
<path d="M3690 2730 c0 -11 -5 -20 -11 -20 -5 0 -7 5 -3 12 4 7 3 8 -4 4 -19
-11 -14 -26 8 -26 15 0 20 7 20 25 0 14 -2 25 -5 25 -3 0 -5 -9 -5 -20z"/>
<path d="M3752 2725 c0 -16 2 -22 5 -12 2 9 2 23 0 30 -3 6 -5 -1 -5 -18z"/>
<path d="M1000 2715 c0 -14 4 -25 9 -25 4 0 6 11 3 25 -2 14 -6 25 -8 25 -2 0
-4 -11 -4 -25z"/>
<path d="M1034 2726 c-4 -10 -1 -23 6 -29 10 -9 14 -9 17 1 3 6 8 10 13 7 4
-3 11 2 14 11 4 11 2 15 -8 11 -7 -3 -18 -1 -24 5 -8 8 -13 7 -18 -6z"/>
<path d="M1104 2726 c-4 -10 -1 -23 6 -29 10 -9 11 -9 6 0 -3 6 0 13 6 16 10
4 10 7 1 17 -10 11 -14 10 -19 -4z"/>
<path d="M1286 2731 c-3 -5 -15 -7 -26 -4 -16 4 -20 0 -20 -22 0 -28 0 -28 21
-9 12 10 23 14 27 9 4 -6 14 -9 22 -9 8 1 21 2 28 3 6 0 12 9 12 19 0 13 -2
14 -9 3 -7 -11 -9 -11 -14 0 -4 12 -7 11 -16 -1 -10 -13 -15 -8 -12 13 1 10
-7 9 -13 -2z"/>
<path d="M1680 2730 c0 -5 5 -10 11 -10 5 0 7 5 4 10 -3 6 -8 10 -11 10 -2 0
-4 -4 -4 -10z"/>
<path d="M3222 2720 c0 -14 2 -19 5 -12 2 6 2 18 0 25 -3 6 -5 1 -5 -13z"/>
<path d="M3912 2720 c0 -14 2 -19 5 -12 2 6 2 18 0 25 -3 6 -5 1 -5 -13z"/>
<path d="M4090 2721 c0 -25 6 -27 13 -6 4 8 2 17 -3 20 -6 4 -10 -3 -10 -14z"/>
<path d="M1140 2713 c0 -15 2 -16 10 -3 9 13 10 13 10 0 0 -13 2 -13 9 -1 7
11 10 10 14 -5 4 -16 5 -16 6 4 1 17 -4 22 -24 22 -17 0 -25 -5 -25 -17z"/>
<path d="M1360 2713 c0 -15 2 -16 10 -3 9 13 10 13 10 0 0 -13 2 -13 9 -1 7
11 10 10 14 -5 4 -16 5 -16 6 4 1 17 -4 22 -24 22 -17 0 -25 -5 -25 -17z"/>
<path d="M1481 2714 c0 -11 3 -14 6 -6 3 7 2 16 -1 19 -3 4 -6 -2 -5 -13z"/>
<path d="M1541 2714 c0 -11 3 -14 6 -6 3 7 2 16 -1 19 -3 4 -6 -2 -5 -13z"/>
<path d="M1580 2715 c0 -8 2 -15 4 -15 2 0 6 7 10 15 3 8 1 15 -4 15 -6 0 -10
-7 -10 -15z"/>
<path d="M1636 2715 c4 -8 11 -15 16 -15 6 0 5 6 -2 15 -7 8 -14 15 -16 15 -2
0 -1 -7 2 -15z"/>
<path d="M1730 2715 c0 -6 7 -12 15 -12 8 0 15 6 15 12 0 6 -7 12 -15 12 -8 0
-15 -6 -15 -12z"/>
<path d="M1782 2716 c8 -9 15 -10 19 -4 4 6 9 5 12 -3 4 -10 6 -9 6 4 1 12 -7
17 -24 17 -22 0 -24 -2 -13 -14z"/>
<path d="M1830 2715 c0 -9 6 -12 15 -9 8 4 15 10 15 15 0 5 -7 9 -15 9 -8 0
-15 -7 -15 -15z"/>
<path d="M3281 2714 c0 -11 3 -14 6 -6 3 7 2 16 -1 19 -3 4 -6 -2 -5 -13z"/>
<path d="M3301 2714 c0 -11 3 -14 6 -6 3 7 2 16 -1 19 -3 4 -6 -2 -5 -13z"/>
<path d="M3325 2721 c-6 -11 9 -23 19 -14 9 9 7 23 -3 23 -6 0 -12 -4 -16 -9z"/>
<path d="M3360 2713 c0 -12 3 -14 8 -7 4 7 16 14 27 17 15 4 14 5 -7 6 -21 1
-28 -4 -28 -16z"/>
<path d="M3491 2714 c0 -11 3 -14 6 -6 3 7 2 16 -1 19 -3 4 -6 -2 -5 -13z"/>
<path d="M3510 2721 c0 -5 5 -13 10 -16 6 -3 10 -2 10 4 0 5 -4 13 -10 16 -5
3 -10 2 -10 -4z"/>
<path d="M3541 2714 c0 -11 3 -14 6 -6 3 7 2 16 -1 19 -3 4 -6 -2 -5 -13z"/>
<path d="M3561 2714 c0 -11 3 -14 6 -6 3 7 2 16 -1 19 -3 4 -6 -2 -5 -13z"/>
<path d="M3580 2713 c0 -12 3 -14 8 -7 4 7 16 14 27 17 15 4 14 5 -7 6 -21 1
-28 -4 -28 -16z"/>
<path d="M3731 2714 c0 -11 3 -14 6 -6 3 7 2 16 -1 19 -3 4 -6 -2 -5 -13z"/>
<path d="M3791 2714 c0 -11 3 -14 6 -6 3 7 2 16 -1 19 -3 4 -6 -2 -5 -13z"/>
<path d="M3811 2714 c0 -11 3 -14 6 -6 3 7 2 16 -1 19 -3 4 -6 -2 -5 -13z"/>
<path d="M3860 2721 c0 -5 5 -13 10 -16 6 -3 10 -2 10 4 0 5 -4 13 -10 16 -5
3 -10 2 -10 -4z"/>
<path d="M3891 2714 c0 -11 3 -14 6 -6 3 7 2 16 -1 19 -3 4 -6 -2 -5 -13z"/>
<path d="M3961 2717 c-8 -10 -7 -14 4 -14 8 0 15 6 15 14 0 7 -2 13 -4 13 -2
0 -9 -6 -15 -13z"/>
<path d="M3990 2713 c0 -12 3 -14 8 -7 4 7 16 14 27 17 15 4 14 5 -7 6 -21 1
-28 -4 -28 -16z"/>
<path d="M4060 2720 c-8 -5 -11 -12 -7 -16 4 -4 13 -2 19 4 15 15 7 24 -12 12z"/>
<path d="M1310 2645 c-1 -26 -3 -27 -10 -10 -7 16 -9 17 -9 3 -1 -9 4 -20 9
-23 13 -8 23 18 17 42 -3 11 -5 7 -7 -12z"/>
<path d="M1482 2640 c0 -19 2 -27 5 -17 2 9 2 25 0 35 -3 9 -5 1 -5 -18z"/>
<path d="M1642 2645 c0 -16 2 -22 5 -12 2 9 2 23 0 30 -3 6 -5 -1 -5 -18z"/>
<path d="M3682 2645 c0 -16 2 -22 5 -12 2 9 2 23 0 30 -3 6 -5 -1 -5 -18z"/>
<path d="M4012 2645 c0 -16 2 -22 5 -12 2 9 2 23 0 30 -3 6 -5 -1 -5 -18z"/>
<path d="M861 2650 c-16 -9 -8 -40 10 -40 9 0 9 3 0 14 -9 11 -9 15 1 19 7 2
11 7 8 10 -3 3 -12 2 -19 -3z"/>
<path d="M894 2646 c-4 -10 -2 -22 4 -28 8 -8 13 -7 18 6 4 10 2 22 -4 28 -8
8 -13 7 -18 -6z m13 -18 c-3 -8 -6 -5 -6 6 -1 11 2 17 5 13 3 -3 4 -12 1 -19z"/>
<path d="M979 2660 c-1 -3 -3 -14 -4 -26 -2 -16 3 -21 24 -21 19 0 27 6 28 19
1 10 -5 18 -13 18 -8 0 -14 -6 -15 -12 0 -7 -4 -4 -9 7 -5 11 -9 18 -11 15z"/>
<path d="M1062 2653 c-26 -5 -27 -33 -2 -41 13 -5 13 -3 1 11 -11 15 -11 17 2
17 8 0 18 -6 20 -12 3 -7 6 -3 6 10 1 12 0 21 -1 21 -2 -1 -13 -4 -26 -6z"/>
<path d="M1142 2640 c0 -14 2 -19 5 -12 2 6 2 18 0 25 -3 6 -5 1 -5 -13z"/>
<path d="M1416 2652 c-4 -7 -3 -19 2 -28 12 -21 22 -5 12 20 -4 13 -9 16 -14
8z"/>
<path d="M1682 2640 c0 -14 2 -19 5 -12 2 6 2 18 0 25 -3 6 -5 1 -5 -13z"/>
<path d="M1750 2652 c0 -5 7 -15 15 -22 8 -7 15 -8 15 -2 0 5 -7 15 -15 22 -8
7 -15 8 -15 2z"/>
<path d="M3440 2650 c0 -5 5 -10 11 -10 5 0 7 5 4 10 -3 6 -8 10 -11 10 -2 0
-4 -4 -4 -10z"/>
<path d="M3493 2653 c-13 -2 -23 -10 -23 -18 0 -10 5 -11 25 -2 14 7 25 15 25
20 0 4 -1 6 -2 6 -2 -1 -13 -4 -25 -6z"/>
<path d="M4110 2638 c0 -19 2 -20 10 -8 13 19 13 30 0 30 -5 0 -10 -10 -10
-22z"/>
<path d="M4137 2645 c-4 -8 -2 -17 3 -20 6 -4 10 3 10 14 0 25 -6 27 -13 6z"/>
<path d="M931 2628 c1 -20 2 -20 6 -4 4 15 7 16 14 5 7 -11 9 -11 9 4 0 9 -7
17 -15 17 -9 0 -15 -9 -14 -22z"/>
<path d="M1102 2633 c2 -9 10 -18 18 -20 13 -4 13 -3 0 6 -10 7 -11 11 -2 11
6 0 12 5 12 10 0 6 -7 10 -16 10 -9 0 -14 -7 -12 -17z"/>
<path d="M1162 2637 c2 -10 6 -18 11 -18 4 1 16 1 27 1 11 0 20 7 20 15 0 18
-26 20 -33 3 -4 -10 -8 -9 -17 2 -9 13 -11 12 -8 -3z"/>
<path d="M1261 2636 c-8 -10 -9 -16 -1 -21 5 -3 13 1 16 10 9 22 -1 29 -15 11z"/>
<path d="M1331 2634 c0 -11 3 -14 6 -6 3 7 2 16 -1 19 -3 4 -6 -2 -5 -13z"/>
<path d="M1351 2622 c2 -23 2 -24 6 -4 2 12 9 22 14 22 6 0 8 -4 5 -8 -3 -5 1
-9 9 -9 26 0 16 23 -10 25 -21 1 -25 -2 -24 -26z"/>
<path d="M1446 2641 c-3 -5 1 -14 8 -20 12 -10 13 -8 9 8 -6 23 -9 25 -17 12z"/>
<path d="M1501 2633 c0 -13 2 -14 6 -4 5 11 7 11 14 0 7 -11 9 -10 9 4 0 9 -7
17 -15 17 -8 0 -15 -8 -14 -17z"/>
<path d="M1541 2634 c0 -11 3 -14 6 -6 3 7 2 16 -1 19 -3 4 -6 -2 -5 -13z"/>
<path d="M1600 2635 c0 -9 6 -12 15 -9 8 4 15 10 15 15 0 5 -7 9 -15 9 -8 0
-15 -7 -15 -15z"/>
<path d="M1661 2634 c0 -11 3 -14 6 -6 3 7 2 16 -1 19 -3 4 -6 -2 -5 -13z"/>
<path d="M1812 2635 c-11 -12 -10 -15 3 -15 8 0 15 7 15 15 0 18 -2 18 -18 0z"/>
<path d="M1840 2639 c0 -5 4 -8 9 -5 5 4 12 0 14 -6 3 -8 6 -6 6 5 1 9 -6 17
-14 17 -8 0 -15 -5 -15 -11z"/>
<path d="M3221 2634 c0 -11 3 -14 6 -6 3 7 2 16 -1 19 -3 4 -6 -2 -5 -13z"/>
<path d="M3255 2641 c-3 -5 -2 -12 3 -15 5 -3 9 1 9 9 0 17 -3 19 -12 6z"/>
<path d="M3281 2634 c0 -11 3 -14 6 -6 3 7 2 16 -1 19 -3 4 -6 -2 -5 -13z"/>
<path d="M3301 2634 c0 -11 3 -14 6 -6 3 7 2 16 -1 19 -3 4 -6 -2 -5 -13z"/>
<path d="M3321 2634 c0 -11 3 -14 6 -6 3 7 2 16 -1 19 -3 4 -6 -2 -5 -13z"/>
<path d="M3340 2641 c0 -5 5 -13 10 -16 6 -3 10 -2 10 4 0 5 -4 13 -10 16 -5
3 -10 2 -10 -4z"/>
<path d="M3370 2634 c0 -8 6 -11 15 -8 8 4 15 9 15 13 0 4 -7 8 -15 8 -8 0
-15 -6 -15 -13z"/>
<path d="M3411 2634 c0 -11 3 -14 6 -6 3 7 2 16 -1 19 -3 4 -6 -2 -5 -13z"/>
<path d="M3531 2634 c0 -11 3 -14 6 -6 3 7 2 16 -1 19 -3 4 -6 -2 -5 -13z"/>
<path d="M3551 2634 c0 -11 3 -14 6 -6 3 7 2 16 -1 19 -3 4 -6 -2 -5 -13z"/>
<path d="M3570 2635 c0 -8 2 -15 4 -15 2 0 6 7 10 15 3 8 1 15 -4 15 -6 0 -10
-7 -10 -15z"/>
<path d="M3633 2643 c-18 -7 -16 -20 2 -20 8 0 15 6 15 14 0 7 -1 13 -2 12 -2
0 -9 -3 -15 -6z"/>
<path d="M3701 2634 c0 -11 3 -14 6 -6 3 7 2 16 -1 19 -3 4 -6 -2 -5 -13z"/>
<path d="M3722 2630 c0 -14 2 -19 5 -12 2 6 2 18 0 25 -3 6 -5 1 -5 -13z"/>
<path d="M3741 2634 c0 -11 3 -14 6 -6 3 7 2 16 -1 19 -3 4 -6 -2 -5 -13z"/>
<path d="M3761 2634 c0 -11 3 -14 6 -6 3 7 2 16 -1 19 -3 4 -6 -2 -5 -13z"/>
<path d="M3780 2641 c0 -5 5 -13 10 -16 6 -3 10 -2 10 4 0 5 -4 13 -10 16 -5
3 -10 2 -10 -4z"/>
<path d="M3810 2635 c0 -8 2 -15 4 -15 2 0 6 7 10 15 3 8 1 15 -4 15 -6 0 -10
-7 -10 -15z"/>
<path d="M3851 2634 c0 -11 3 -14 6 -6 3 7 2 16 -1 19 -3 4 -6 -2 -5 -13z"/>
<path d="M3876 2643 c5 -5 12 -12 16 -18 4 -6 8 -2 8 8 0 9 -7 17 -17 17 -9 0
-12 -3 -7 -7z"/>
<path d="M3931 2633 c-1 -12 -7 -24 -13 -26 -10 -4 -10 -6 0 -6 15 -1 26 23
19 41 -3 7 -6 3 -6 -9z"/>
<path d="M3970 2634 c0 -8 6 -11 15 -8 8 4 15 9 15 13 0 4 -7 8 -15 8 -8 0
-15 -6 -15 -13z"/>
<path d="M4161 2634 c0 -11 3 -14 6 -6 3 7 2 16 -1 19 -3 4 -6 -2 -5 -13z"/>
<path d="M4200 2633 c0 -10 4 -14 8 -8 4 6 11 13 16 18 5 4 2 7 -7 7 -10 0
-17 -8 -17 -17z"/>
<path d="M4247 2643 c-10 -9 -9 -23 1 -23 5 0 9 7 9 15 0 17 -1 18 -10 8z"/>
<path d="M1552 2615 c-11 -12 -10 -15 3 -15 8 0 15 7 15 15 0 18 -2 18 -18 0z"/>
<path d="M962 2560 c0 -19 2 -27 5 -17 2 9 2 25 0 35 -3 9 -5 1 -5 -18z"/>
<path d="M980 2561 c0 -32 16 -42 26 -16 3 8 -1 22 -10 30 -15 15 -16 14 -16
-14z"/>
<path d="M1021 2558 c1 -20 3 -25 6 -14 4 15 7 16 14 5 7 -11 9 -11 9 -1 0 7
-7 20 -15 28 -13 14 -15 12 -14 -18z"/>
<path d="M1112 2560 c0 -19 2 -27 5 -17 2 9 2 25 0 35 -3 9 -5 1 -5 -18z"/>
<path d="M1282 2560 c0 -19 2 -27 5 -17 2 9 2 25 0 35 -3 9 -5 1 -5 -18z"/>
<path d="M1442 2574 c-15 -16 -10 -44 8 -44 5 0 10 14 10 30 0 34 0 35 -18 14z"/>
<path d="M1692 2565 c0 -16 2 -22 5 -12 2 9 2 23 0 30 -3 6 -5 -1 -5 -18z"/>
<path d="M3280 2562 c0 -19 3 -23 9 -13 5 7 14 10 20 7 18 -11 13 -2 -9 17
-19 16 -20 16 -20 -11z"/>
<path d="M3992 2565 c0 -16 2 -22 5 -12 2 9 2 23 0 30 -3 6 -5 -1 -5 -18z"/>
<path d="M1340 2562 c0 -11 4 -23 8 -26 10 -6 9 30 -1 40 -4 4 -7 -2 -7 -14z"/>
<path d="M1892 2560 c0 -14 2 -19 5 -12 2 6 2 18 0 25 -3 6 -5 1 -5 -13z"/>
<path d="M3645 2570 c-3 -5 -1 -10 4 -10 6 0 11 5 11 10 0 6 -2 10 -4 10 -3 0
-8 -4 -11 -10z"/>
<path d="M4192 2560 c0 -14 2 -19 5 -12 2 6 2 18 0 25 -3 6 -5 1 -5 -13z"/>
<path d="M920 2553 c0 -15 2 -15 9 -4 7 11 10 10 14 -5 4 -16 5 -16 6 4 1 13
-5 22 -14 22 -8 0 -15 -8 -15 -17z"/>
<path d="M1080 2555 c0 -8 2 -15 4 -15 2 0 6 7 10 15 3 8 1 15 -4 15 -6 0 -10
-7 -10 -15z"/>
<path d="M1133 2551 c1 -16 7 -19 31 -16 16 2 33 10 37 17 8 13 13 3 9 -17 -1
-5 4 -5 10 2 7 6 9 16 6 22 -10 15 -46 14 -46 -1 0 -9 -4 -8 -10 2 -8 12 -10
12 -10 1 0 -11 -3 -11 -14 -1 -12 9 -15 8 -13 -9z"/>
<path d="M1301 2548 c1 -20 2 -20 6 -4 4 15 7 16 14 5 7 -11 9 -11 9 4 0 9 -7
17 -15 17 -9 0 -15 -9 -14 -22z"/>
<path d="M1366 2561 c-3 -5 0 -14 7 -19 10 -8 13 -6 14 9 2 19 -11 26 -21 10z"/>
<path d="M1400 2555 c0 -8 2 -15 4 -15 2 0 6 7 10 15 3 8 1 15 -4 15 -6 0 -10
-7 -10 -15z"/>
<path d="M1471 2558 c-1 -20 11 -29 26 -20 8 5 9 13 3 22 -8 12 -10 11 -11 -5
l0 -20 -9 20 c-7 16 -9 17 -9 3z"/>
<path d="M1535 2563 c11 -3 23 -10 27 -17 5 -7 8 -5 8 7 0 12 -7 17 -27 16
-22 -1 -23 -2 -8 -6z"/>
<path d="M1607 2563 c-13 -12 -7 -23 12 -23 10 0 21 7 25 15 3 8 1 15 -4 15
-6 0 -10 -6 -10 -12 0 -10 -2 -10 -8 0 -5 7 -11 9 -15 5z"/>
<path d="M1710 2555 c0 -18 36 -20 43 -2 4 9 8 8 16 -3 9 -13 11 -13 11 3 0
20 -20 23 -38 5 -9 -9 -12 -9 -12 0 0 7 -4 12 -10 12 -5 0 -10 -7 -10 -15z"/>
<path d="M1810 2554 c0 -8 6 -11 15 -8 8 4 15 9 15 13 0 4 -7 8 -15 8 -8 0
-15 -6 -15 -13z"/>
<path d="M1850 2555 c0 -9 6 -12 15 -9 8 4 15 10 15 15 0 5 -7 9 -15 9 -8 0
-15 -7 -15 -15z"/>
<path d="M3220 2553 c0 -10 4 -14 8 -8 4 6 11 13 16 18 5 4 2 7 -7 7 -10 0
-17 -8 -17 -17z"/>
<path d="M3261 2554 c0 -11 3 -14 6 -6 3 7 2 16 -1 19 -3 4 -6 -2 -5 -13z"/>
<path d="M3430 2566 c0 -2 7 -9 15 -16 13 -11 14 -10 9 4 -5 14 -24 23 -24 12z"/>
<path d="M3491 2554 c0 -11 3 -14 6 -6 3 7 2 16 -1 19 -3 4 -6 -2 -5 -13z"/>
<path d="M3510 2561 c0 -5 5 -13 10 -16 6 -3 10 -2 10 4 0 5 -4 13 -10 16 -5
3 -10 2 -10 -4z"/>
<path d="M3670 2554 c0 -8 6 -11 15 -8 8 4 15 9 15 13 0 4 -7 8 -15 8 -8 0
-15 -6 -15 -13z"/>
<path d="M3711 2554 c0 -11 3 -14 6 -6 3 7 2 16 -1 19 -3 4 -6 -2 -5 -13z"/>
<path d="M3735 2559 c-11 -16 -1 -19 13 -3 7 8 8 14 3 14 -5 0 -13 -5 -16 -11z"/>
<path d="M3792 2555 c-11 -12 -10 -15 3 -15 8 0 15 7 15 15 0 18 -2 18 -18 0z"/>
<path d="M3821 2553 c0 -13 2 -14 6 -4 5 11 7 11 14 0 7 -11 9 -10 9 4 0 9 -7
17 -15 17 -8 0 -15 -8 -14 -17z"/>
<path d="M3861 2554 c0 -11 3 -14 6 -6 3 7 2 16 -1 19 -3 4 -6 -2 -5 -13z"/>
<path d="M3900 2557 c0 -8 7 -14 15 -14 8 0 15 6 15 14 0 7 -7 13 -15 13 -8 0
-15 -6 -15 -13z"/>
<path d="M4031 2554 c0 -11 3 -14 6 -6 3 7 2 16 -1 19 -3 4 -6 -2 -5 -13z"/>
<path d="M4071 2554 c0 -11 3 -14 6 -6 3 7 2 16 -1 19 -3 4 -6 -2 -5 -13z"/>
<path d="M4091 2554 c0 -11 3 -14 6 -6 3 7 2 16 -1 19 -3 4 -6 -2 -5 -13z"/>
<path d="M4120 2554 c0 -8 5 -12 10 -9 6 3 10 10 10 16 0 5 -4 9 -10 9 -5 0
-10 -7 -10 -16z"/>
<path d="M4150 2555 c0 -9 6 -12 15 -9 8 4 15 10 15 15 0 5 -7 9 -15 9 -8 0
-15 -7 -15 -15z"/>
<path d="M1036 2502 c-4 -6 -20 -12 -36 -12 -15 0 -31 -6 -33 -12 -4 -10 -6
-10 -6 0 -1 6 -5 12 -10 12 -6 0 -9 -8 -8 -18 1 -15 11 -18 76 -17 l76 0 2 30
c1 17 0 24 -3 18 -3 -7 -12 -13 -20 -13 -8 0 -14 -6 -15 -12 -1 -7 -4 -2 -8
12 -5 17 -9 21 -15 12z"/>
<path d="M1652 2485 c0 -16 2 -22 5 -12 2 9 2 23 0 30 -3 6 -5 -1 -5 -18z"/>
<path d="M3322 2485 c0 -16 2 -22 5 -12 2 9 2 23 0 30 -3 6 -5 -1 -5 -18z"/>
<path d="M3932 2485 c0 -16 2 -22 5 -12 2 9 2 23 0 30 -3 6 -5 -1 -5 -18z"/>
<path d="M1530 2490 c0 -5 5 -10 11 -10 5 0 7 5 4 10 -3 6 -8 10 -11 10 -2 0
-4 -4 -4 -10z"/>
<path d="M1792 2480 c0 -14 2 -19 5 -12 2 6 2 18 0 25 -3 6 -5 1 -5 -13z"/>
<path d="M3815 2490 c-3 -5 -1 -10 4 -10 6 0 11 5 11 10 0 6 -2 10 -4 10 -3 0
-8 -4 -11 -10z"/>
<path d="M4070 2481 c0 -25 6 -27 13 -6 4 8 2 17 -3 20 -6 4 -10 -3 -10 -14z"/>
<path d="M1112 2473 c4 -24 23 -27 25 -3 1 12 -4 20 -13 20 -9 0 -14 -7 -12
-17z"/>
<path d="M1153 2470 c1 -20 8 -25 20 -14 7 8 -3 34 -13 34 -5 0 -8 -9 -7 -20z"/>
<path d="M1226 2481 c-3 -5 0 -13 7 -19 10 -8 13 -6 13 9 0 20 -11 25 -20 10z"/>
<path d="M1260 2475 c0 -18 17 -28 25 -15 4 6 11 8 16 5 5 -4 9 0 9 7 0 9 3 9
10 -2 8 -13 10 -13 10 2 0 12 -9 16 -35 16 -23 0 -35 -5 -35 -13z"/>
<path d="M1347 2470 c3 -11 9 -17 14 -15 10 7 1 35 -11 35 -5 0 -6 -9 -3 -20z"/>
<path d="M1376 2481 c-3 -5 0 -14 7 -19 10 -8 13 -6 14 9 2 19 -11 26 -21 10z"/>
<path d="M1410 2475 c0 -21 30 -31 41 -14 5 8 9 10 9 4 0 -5 16 -10 35 -10 21
0 35 4 35 12 0 19 -21 27 -31 12 -7 -12 -9 -11 -9 1 0 13 -1 13 -10 0 -6 -10
-10 -11 -10 -2 0 7 -13 12 -30 12 -20 0 -30 -5 -30 -15z"/>
<path d="M1580 2476 c0 -9 5 -16 10 -16 6 0 10 4 10 9 0 6 -4 13 -10 16 -5 3
-10 -1 -10 -9z"/>
<path d="M1606 2476 c3 -8 12 -12 20 -9 21 8 17 23 -6 23 -13 0 -18 -5 -14
-14z"/>
<path d="M1691 2473 c0 -13 2 -14 6 -4 3 8 8 9 12 3 4 -6 11 -5 19 4 11 12 9
14 -13 14 -17 0 -25 -5 -24 -17z"/>
<path d="M1750 2475 c0 -9 6 -12 15 -9 8 4 15 10 15 15 0 5 -7 9 -15 9 -8 0
-15 -7 -15 -15z"/>
<path d="M1832 2475 c-11 -12 -10 -15 3 -15 8 0 15 7 15 15 0 18 -2 18 -18 0z"/>
<path d="M1860 2481 c0 -5 5 -13 10 -16 6 -3 10 -2 10 4 0 5 -4 13 -10 16 -5
3 -10 2 -10 -4z"/>
<path d="M3227 2480 c14 -15 46 -23 37 -9 -3 5 -1 9 5 9 5 0 12 -6 14 -12 3
-8 6 -6 6 5 1 18 -24 24 -34 7 -5 -8 -12 -7 -23 2 -14 10 -15 10 -5 -2z"/>
<path d="M3347 2483 c-4 -3 -7 -11 -7 -17 0 -6 5 -5 12 2 6 6 9 14 7 17 -3 3
-9 2 -12 -2z"/>
<path d="M3395 2479 c-4 -6 -5 -13 -2 -16 7 -7 27 6 27 18 0 12 -17 12 -25 -2z"/>
<path d="M3430 2486 c0 -2 8 -10 18 -17 15 -13 16 -12 3 4 -13 16 -21 21 -21
13z"/>
<path d="M3541 2474 c0 -11 3 -14 6 -6 3 7 2 16 -1 19 -3 4 -6 -2 -5 -13z"/>
<path d="M3580 2473 c0 -10 4 -14 8 -8 4 6 11 13 16 18 5 4 2 7 -7 7 -10 0
-17 -8 -17 -17z"/>
<path d="M3620 2486 c0 -2 7 -9 15 -16 13 -11 14 -10 9 4 -5 14 -24 23 -24 12z"/>
<path d="M3660 2473 c0 -12 3 -13 14 -4 11 9 15 9 19 -1 4 -10 6 -10 6 0 1 6
6 12 12 12 5 0 8 -4 4 -9 -3 -5 -1 -12 5 -16 5 -3 10 3 10 13 0 16 -7 20 -35
20 -25 0 -35 -4 -35 -15z"/>
<path d="M3761 2474 c0 -11 3 -14 6 -6 3 7 2 16 -1 19 -3 4 -6 -2 -5 -13z"/>
<path d="M3787 2483 c-4 -3 -7 -11 -7 -17 0 -6 5 -5 12 2 6 6 9 14 7 17 -3 3
-9 2 -12 -2z"/>
<path d="M3860 2481 c0 -6 4 -13 10 -16 6 -3 7 1 4 9 -7 18 -14 21 -14 7z"/>
<path d="M3892 2473 c5 -7 14 -10 19 -7 16 10 9 23 -10 21 -15 -1 -17 -4 -9
-14z"/>
<path d="M3970 2473 c0 -12 3 -14 8 -7 4 7 16 14 27 17 15 4 14 5 -7 6 -21 1
-28 -4 -28 -16z"/>
<path d="M4035 2479 c-4 -6 -5 -13 -2 -16 7 -7 27 6 27 18 0 12 -17 12 -25 -2z"/>
<path d="M4121 2474 c0 -11 3 -14 6 -6 3 7 2 16 -1 19 -3 4 -6 -2 -5 -13z"/>
<path d="M4140 2481 c0 -5 5 -13 10 -16 6 -3 10 -2 10 4 0 5 -4 13 -10 16 -5
3 -10 2 -10 -4z"/>
<path d="M740 2398 c1 -29 2 -31 11 -14 9 15 13 16 20 5 8 -12 11 -12 19 1 8
13 10 13 10 -2 0 -21 34 -17 38 5 2 10 -1 17 -7 17 -6 0 -11 -5 -11 -12 0 -6
-9 -1 -20 12 -17 20 -22 21 -37 9 -11 -9 -14 -10 -9 -1 4 6 2 12 -3 12 -6 0
-11 -15 -11 -32z"/>
<path d="M920 2421 c0 -5 -9 -11 -20 -14 -13 -3 -18 -10 -14 -21 3 -9 10 -16
16 -16 5 0 6 5 2 12 -5 8 -2 9 9 5 13 -5 17 -1 17 18 0 14 -2 25 -5 25 -3 0
-5 -4 -5 -9z"/>
<path d="M942 2405 c0 -16 2 -22 5 -12 2 9 2 23 0 30 -3 6 -5 -1 -5 -18z"/>
<path d="M1131 2398 c1 -20 3 -25 6 -14 4 15 7 16 14 5 7 -11 9 -11 9 -1 0 7
-7 20 -15 28 -13 14 -15 12 -14 -18z"/>
<path d="M1271 2409 c-1 -30 26 -48 36 -23 7 20 -6 32 -17 15 -6 -11 -9 -8
-13 10 -4 23 -4 23 -6 -2z"/>
<path d="M1493 2405 c2 -27 5 -30 32 -29 45 3 45 3 45 22 0 14 -2 15 -10 2 -6
-10 -10 -11 -10 -2 0 6 -11 12 -24 12 -13 0 -27 6 -30 13 -3 6 -4 -1 -3 -18z"/>
<path d="M1720 2405 c0 -14 2 -25 4 -25 2 0 6 11 8 25 3 14 1 25 -3 25 -5 0
-9 -11 -9 -25z"/>
<path d="M1782 2405 c0 -16 2 -22 5 -12 2 9 2 23 0 30 -3 6 -5 -1 -5 -18z"/>
<path d="M3262 2405 c0 -16 2 -22 5 -12 2 9 2 23 0 30 -3 6 -5 -1 -5 -18z"/>
<path d="M3412 2405 c0 -16 2 -22 5 -12 2 9 2 23 0 30 -3 6 -5 -1 -5 -18z"/>
<path d="M3432 2405 c0 -16 2 -22 5 -12 2 9 2 23 0 30 -3 6 -5 -1 -5 -18z"/>
<path d="M3752 2405 c0 -16 2 -22 5 -12 2 9 2 23 0 30 -3 6 -5 -1 -5 -18z"/>
<path d="M4062 2405 c0 -16 2 -22 5 -12 2 9 2 23 0 30 -3 6 -5 -1 -5 -18z"/>
<path d="M4207 2423 c-10 -9 -9 -23 2 -23 5 0 11 7 15 15 5 15 -5 20 -17 8z"/>
<path d="M1452 2400 c0 -14 2 -19 5 -12 2 6 2 18 0 25 -3 6 -5 1 -5 -13z"/>
<path d="M3220 2401 c0 -20 2 -21 15 -11 8 7 15 18 14 24 0 6 -3 5 -6 -3 -5
-11 -7 -11 -14 0 -6 10 -9 7 -9 -10z"/>
<path d="M3930 2401 c0 -25 6 -27 13 -6 4 8 2 17 -3 20 -6 4 -10 -3 -10 -14z"/>
<path d="M857 2390 c3 -11 9 -17 14 -15 10 7 1 35 -11 35 -5 0 -6 -9 -3 -20z"/>
<path d="M960 2398 c0 -26 21 -33 37 -13 12 18 18 13 13 -10 -1 -5 4 -5 10 2
7 6 9 16 6 22 -10 15 -46 14 -46 -1 0 -9 -4 -8 -10 2 -8 13 -10 13 -10 -2z"/>
<path d="M1056 2396 c3 -9 11 -16 16 -16 13 0 5 23 -10 28 -7 2 -10 -2 -6 -12z"/>
<path d="M1090 2390 c6 -11 14 -20 18 -20 4 0 8 9 9 20 1 14 -4 20 -18 20 -17
0 -18 -3 -9 -20z"/>
<path d="M1171 2394 c0 -11 3 -14 6 -6 3 7 2 16 -1 19 -3 4 -6 -2 -5 -13z"/>
<path d="M1190 2396 c0 -8 4 -17 8 -20 4 -2 8 4 8 15 0 10 -4 19 -8 19 -4 0
-8 -6 -8 -14z"/>
<path d="M1220 2397 c0 -8 3 -16 6 -20 10 -10 34 5 34 22 0 14 -2 14 -10 1 -6
-10 -10 -11 -10 -2 0 6 -4 12 -10 12 -5 0 -10 -6 -10 -13z"/>
<path d="M1345 2392 c3 -8 5 -17 5 -20 0 -4 4 -1 9 7 8 13 12 13 27 0 11 -9
15 -9 10 -1 -4 6 -2 12 3 12 19 0 26 -5 23 -15 -2 -5 2 -5 8 2 21 20 1 33 -46
31 -32 -2 -43 -7 -39 -16z"/>
<path d="M1471 2394 c0 -11 3 -14 6 -6 3 7 2 16 -1 19 -3 4 -6 -2 -5 -13z"/>
<path d="M1612 2395 c-11 -12 -10 -15 3 -15 8 0 15 7 15 15 0 18 -2 18 -18 0z"/>
<path d="M1641 2393 c0 -13 2 -14 6 -4 5 11 7 11 14 0 7 -12 9 -11 9 1 0 13 1
13 10 0 8 -13 10 -12 10 3 0 12 -8 17 -25 17 -17 0 -25 -5 -24 -17z"/>
<path d="M1745 2399 c-4 -6 -5 -13 -2 -16 7 -7 27 6 27 18 0 12 -17 12 -25 -2z"/>
<path d="M1801 2394 c0 -11 3 -14 6 -6 3 7 2 16 -1 19 -3 4 -6 -2 -5 -13z"/>
<path d="M1820 2401 c0 -5 5 -13 10 -16 6 -3 10 -2 10 4 0 5 -4 13 -10 16 -5
3 -10 2 -10 -4z"/>
<path d="M1881 2397 c-8 -10 -7 -14 4 -14 8 0 15 6 15 14 0 7 -2 13 -4 13 -2
0 -9 -6 -15 -13z"/>
<path d="M3281 2394 c0 -11 3 -14 6 -6 3 7 2 16 -1 19 -3 4 -6 -2 -5 -13z"/>
<path d="M3300 2397 c0 -8 7 -14 15 -14 8 0 15 6 15 14 0 7 -7 13 -15 13 -8 0
-15 -6 -15 -13z"/>
<path d="M3340 2401 c0 -5 5 -13 10 -16 6 -3 10 -2 10 4 0 5 -4 13 -10 16 -5
3 -10 2 -10 -4z"/>
<path d="M3370 2394 c0 -8 6 -11 15 -8 8 4 15 9 15 13 0 4 -7 8 -15 8 -8 0
-15 -6 -15 -13z"/>
<path d="M3462 2395 c-11 -12 -10 -15 3 -15 8 0 15 7 15 15 0 18 -2 18 -18 0z"/>
<path d="M3490 2401 c0 -5 5 -13 10 -16 6 -3 10 -2 10 4 0 5 -4 13 -10 16 -5
3 -10 2 -10 -4z"/>
<path d="M3544 2400 c2 -16 20 -14 24 2 3 10 2 10 -6 -1 -7 -9 -11 -10 -15 -2
-4 7 -5 8 -3 1z"/>
<path d="M3580 2394 c0 -8 5 -12 10 -9 6 3 10 10 10 16 0 5 -4 9 -10 9 -5 0
-10 -7 -10 -16z"/>
<path d="M3677 2403 c-10 -9 -9 -23 1 -23 5 0 9 7 9 15 0 17 -1 18 -10 8z"/>
<path d="M3711 2394 c0 -11 3 -14 6 -6 3 7 2 16 -1 19 -3 4 -6 -2 -5 -13z"/>
<path d="M3731 2394 c0 -11 3 -14 6 -6 3 7 2 16 -1 19 -3 4 -6 -2 -5 -13z"/>
<path d="M3777 2403 c-11 -11 -8 -20 7 -20 8 0 12 6 9 14 -6 15 -7 15 -16 6z"/>
<path d="M3827 2394 c3 -7 9 -14 14 -14 14 0 10 17 -5 23 -10 4 -13 1 -9 -9z"/>
<path d="M3860 2394 c0 -8 6 -11 15 -8 8 4 15 9 15 13 0 4 -7 8 -15 8 -8 0
-15 -6 -15 -13z"/>
<path d="M3900 2401 c0 -5 5 -13 10 -16 6 -3 10 -2 10 4 0 5 -4 13 -10 16 -5
3 -10 2 -10 -4z"/>
<path d="M3961 2394 c0 -11 3 -14 6 -6 3 7 2 16 -1 19 -3 4 -6 -2 -5 -13z"/>
<path d="M4001 2394 c0 -11 3 -14 6 -6 3 7 2 16 -1 19 -3 4 -6 -2 -5 -13z"/>
<path d="M4021 2394 c0 -11 3 -14 6 -6 3 7 2 16 -1 19 -3 4 -6 -2 -5 -13z"/>
<path d="M4041 2394 c0 -11 3 -14 6 -6 3 7 2 16 -1 19 -3 4 -6 -2 -5 -13z"/>
<path d="M4081 2394 c0 -11 3 -14 6 -6 3 7 2 16 -1 19 -3 4 -6 -2 -5 -13z"/>
<path d="M4101 2394 c0 -11 3 -14 6 -6 3 7 2 16 -1 19 -3 4 -6 -2 -5 -13z"/>
<path d="M4121 2393 c0 -13 2 -14 6 -4 3 8 8 9 12 3 4 -6 11 -5 19 4 11 12 9
14 -13 14 -17 0 -25 -5 -24 -17z"/>
<path d="M4230 2394 c0 -14 3 -14 15 -4 8 7 15 14 15 16 0 2 -7 4 -15 4 -8 0
-15 -7 -15 -16z"/>
<path d="M4300 2406 c0 -2 7 -9 15 -16 13 -11 14 -10 9 4 -5 14 -24 23 -24 12z"/>
<path d="M4367 2403 c-4 -3 -7 -11 -7 -17 0 -6 5 -5 12 2 6 6 9 14 7 17 -3 3
-9 2 -12 -2z"/>
<path d="M957 2343 c-11 -10 -8 -41 3 -48 6 -4 17 -2 25 5 9 7 15 8 20 0 11
-18 25 -11 24 13 0 21 -1 21 -9 2 -5 -11 -9 -14 -9 -6 -1 8 -9 20 -18 27 -21
15 -27 17 -36 7z m23 -25 c0 -16 -3 -19 -11 -11 -6 6 -8 16 -5 22 11 17 16 13
16 -11z"/>
<path d="M1347 2343 c-4 -3 -7 -15 -7 -26 0 -25 9 -17 15 12 4 22 2 25 -8 14z"/>
<path d="M3830 2335 c0 -8 2 -15 4 -15 2 0 6 7 10 15 3 8 1 15 -4 15 -6 0 -10
-7 -10 -15z"/>
<path d="M836 2331 c-10 -4 -36 -6 -57 -4 -36 3 -39 1 -39 -24 0 -25 1 -25 18
-10 14 13 21 14 31 4 9 -9 14 -9 20 2 7 11 9 11 14 0 4 -10 6 -9 6 4 1 9 5 17
10 17 5 0 12 -8 14 -17 3 -11 5 -7 6 10 0 15 0 27 -1 26 -2 0 -11 -4 -22 -8z"/>
<path d="M1402 2320 c0 -14 2 -19 5 -12 2 6 2 18 0 25 -3 6 -5 1 -5 -13z"/>
<path d="M1533 2333 c-7 -2 -13 -12 -13 -21 0 -14 2 -14 9 -3 7 11 9 11 14 0
4 -12 7 -11 16 1 8 11 11 12 11 2 0 -7 4 -11 9 -7 5 3 12 1 16 -5 8 -13 25 -3
25 15 0 9 -9 14 -22 14 -13 -1 -30 1 -38 4 -8 3 -21 3 -27 0z"/>
<path d="M3330 2321 c0 -25 6 -27 13 -6 4 8 2 17 -3 20 -6 4 -10 -3 -10 -14z"/>
<path d="M3464 2320 c0 -13 4 -16 10 -10 7 7 7 13 0 20 -6 6 -10 3 -10 -10z"/>
<path d="M3892 2320 c0 -14 2 -19 5 -12 2 6 2 18 0 25 -3 6 -5 1 -5 -13z"/>
<path d="M4031 2317 c0 -13 3 -16 6 -8 5 11 7 11 14 0 7 -11 9 -11 9 2 0 9 -7
19 -15 23 -11 4 -15 -1 -14 -17z"/>
<path d="M877 2316 c-6 -16 2 -28 14 -20 12 7 11 34 0 34 -5 0 -11 -6 -14 -14z"/>
<path d="M1041 2314 c0 -11 3 -14 6 -6 3 7 2 16 -1 19 -3 4 -6 -2 -5 -13z"/>
<path d="M1064 2314 c3 -9 6 -18 6 -20 0 -3 4 -3 10 1 11 7 2 35 -12 35 -6 0
-7 -7 -4 -16z"/>
<path d="M1120 2313 c0 -15 2 -15 9 -4 7 11 10 10 14 -5 4 -18 5 -18 6 1 1 17
3 18 11 5 8 -13 10 -12 10 3 0 12 -8 17 -25 17 -17 0 -25 -5 -25 -17z"/>
<path d="M1180 2312 c0 -10 7 -19 15 -19 8 0 15 9 15 19 0 10 -7 18 -15 18 -8
0 -15 -8 -15 -18z"/>
<path d="M1223 2311 c0 -11 5 -17 9 -15 11 7 10 34 -1 34 -6 0 -9 -9 -8 -19z"/>
<path d="M1253 2311 c2 -24 50 -22 55 3 4 19 -14 22 -22 4 -5 -10 -7 -10 -12
0 -9 19 -23 14 -21 -7z"/>
<path d="M1366 2321 c-3 -5 0 -14 7 -19 10 -8 13 -6 14 9 2 19 -11 26 -21 10z"/>
<path d="M1421 2314 c0 -11 3 -14 6 -6 3 7 2 16 -1 19 -3 4 -6 -2 -5 -13z"/>
<path d="M1444 2314 c3 -9 6 -18 6 -20 0 -3 4 -3 10 1 11 7 2 35 -12 35 -6 0
-7 -7 -4 -16z"/>
<path d="M1631 2313 c0 -13 2 -14 6 -4 5 11 7 11 14 0 7 -11 9 -10 9 4 0 9 -7
17 -15 17 -8 0 -15 -8 -14 -17z"/>
<path d="M1671 2314 c0 -11 3 -14 6 -6 3 7 2 16 -1 19 -3 4 -6 -2 -5 -13z"/>
<path d="M1701 2314 c0 -11 3 -14 6 -6 3 7 2 16 -1 19 -3 4 -6 -2 -5 -13z"/>
<path d="M1750 2321 c0 -6 4 -13 10 -16 6 -3 7 1 4 9 -7 18 -14 21 -14 7z"/>
<path d="M1801 2313 c0 -13 2 -14 6 -4 5 11 7 11 14 0 7 -11 9 -10 9 4 0 9 -7
17 -15 17 -8 0 -15 -8 -14 -17z"/>
<path d="M1841 2314 c0 -11 3 -14 6 -6 3 7 2 16 -1 19 -3 4 -6 -2 -5 -13z"/>
<path d="M1881 2314 c0 -11 3 -14 6 -6 3 7 2 16 -1 19 -3 4 -6 -2 -5 -13z"/>
<path d="M3220 2309 c0 -10 4 -19 10 -19 5 0 7 7 4 15 -7 17 11 21 22 4 4 -8
9 -7 15 2 8 12 11 11 20 -1 9 -13 10 -13 7 0 -3 8 -19 15 -41 17 -31 1 -37 -1
-37 -18z"/>
<path d="M3366 2321 c-4 -7 -5 -15 -2 -18 9 -9 19 4 14 18 -4 11 -6 11 -12 0z"/>
<path d="M3502 2315 c-11 -12 -10 -15 3 -15 8 0 15 7 15 15 0 18 -2 18 -18 0z"/>
<path d="M3550 2321 c0 -5 5 -13 10 -16 6 -3 10 -2 10 4 0 5 -4 13 -10 16 -5
3 -10 2 -10 -4z"/>
<path d="M3601 2313 c0 -13 2 -14 6 -4 3 8 8 9 12 3 4 -6 11 -5 19 4 11 12 9
14 -13 14 -17 0 -25 -5 -24 -17z"/>
<path d="M3671 2317 c-8 -10 -7 -14 4 -14 8 0 15 6 15 14 0 7 -2 13 -4 13 -2
0 -9 -6 -15 -13z"/>
<path d="M3700 2321 c0 -5 5 -13 10 -16 6 -3 10 -2 10 4 0 5 -4 13 -10 16 -5
3 -10 2 -10 -4z"/>
<path d="M3730 2326 c0 -2 7 -9 15 -16 13 -11 14 -10 9 4 -5 14 -24 23 -24 12z"/>
<path d="M3776 2321 c-4 -7 -5 -15 -2 -18 9 -9 19 4 14 18 -4 11 -6 11 -12 0z"/>
<path d="M3851 2314 c0 -11 3 -14 6 -6 3 7 2 16 -1 19 -3 4 -6 -2 -5 -13z"/>
<path d="M3930 2321 c0 -6 4 -13 10 -16 6 -3 7 1 4 9 -7 18 -14 21 -14 7z"/>
<path d="M4000 2315 c0 -8 2 -15 4 -15 2 0 6 7 10 15 3 8 1 15 -4 15 -6 0 -10
-7 -10 -15z"/>
<path d="M4071 2314 c0 -11 3 -14 6 -6 3 7 2 16 -1 19 -3 4 -6 -2 -5 -13z"/>
<path d="M4110 2313 c0 -10 4 -14 8 -8 4 6 11 13 16 18 5 4 2 7 -7 7 -10 0
-17 -8 -17 -17z"/>
<path d="M4150 2315 c0 -8 2 -15 4 -15 2 0 6 7 10 15 3 8 1 15 -4 15 -6 0 -10
-7 -10 -15z"/>
<path d="M4211 2314 c0 -11 3 -14 6 -6 3 7 2 16 -1 19 -3 4 -6 -2 -5 -13z"/>
<path d="M4230 2321 c0 -5 5 -13 10 -16 6 -3 10 -2 10 4 0 5 -4 13 -10 16 -5
3 -10 2 -10 -4z"/>
<path d="M4280 2313 c0 -10 4 -14 8 -8 4 6 11 13 16 18 5 4 2 7 -7 7 -10 0
-17 -8 -17 -17z"/>
<path d="M4327 2323 c-12 -12 -7 -22 8 -17 8 4 15 10 15 15 0 11 -14 12 -23 2z"/>
<path d="M4361 2314 c0 -11 3 -14 6 -6 3 7 2 16 -1 19 -3 4 -6 -2 -5 -13z"/>
<path d="M1000 2241 c0 -26 31 -36 46 -16 11 15 13 15 17 -2 3 -12 5 -9 6 9 1
20 -3 26 -14 22 -8 -4 -15 -10 -15 -16 0 -5 -7 -2 -16 6 -20 21 -24 20 -24 -3z"/>
<path d="M1160 2242 c0 -11 4 -23 8 -26 10 -6 9 30 -1 40 -4 4 -7 -2 -7 -14z"/>
<path d="M1360 2242 c0 -11 4 -23 8 -26 10 -6 9 30 -1 40 -4 4 -7 -2 -7 -14z"/>
<path d="M1467 2253 c-3 -5 -1 -17 4 -28 7 -17 8 -17 8 8 1 27 -4 34 -12 20z"/>
<path d="M1700 2250 c0 -5 5 -10 10 -10 6 0 10 5 10 10 0 6 -4 10 -10 10 -5 0
-10 -4 -10 -10z"/>
<path d="M1892 2235 c0 -16 2 -22 5 -12 2 9 2 23 0 30 -3 6 -5 -1 -5 -18z"/>
<path d="M3302 2240 c0 -14 2 -19 5 -12 2 6 2 18 0 25 -3 6 -5 1 -5 -13z"/>
<path d="M3362 2240 c0 -14 2 -19 5 -12 2 6 2 18 0 25 -3 6 -5 1 -5 -13z"/>
<path d="M3462 2240 c0 -14 2 -19 5 -12 2 6 2 18 0 25 -3 6 -5 1 -5 -13z"/>
<path d="M3660 2241 c0 -25 6 -27 13 -6 4 8 2 17 -3 20 -6 4 -10 -3 -10 -14z"/>
<path d="M3772 2240 c0 -14 2 -19 5 -12 2 6 2 18 0 25 -3 6 -5 1 -5 -13z"/>
<path d="M4192 2240 c0 -14 2 -19 5 -12 2 6 2 18 0 25 -3 6 -5 1 -5 -13z"/>
<path d="M920 2234 c0 -7 5 -16 10 -19 6 -3 10 -1 10 6 0 9 4 9 15 -1 16 -14
35 -5 35 16 0 11 -10 14 -35 12 -20 -1 -35 -7 -35 -14z m60 -4 c0 -5 -2 -10
-4 -10 -3 0 -8 5 -11 10 -3 6 -1 10 4 10 6 0 11 -4 11 -10z"/>
<path d="M1080 2225 c0 -22 3 -24 19 -15 11 5 27 7 35 4 12 -4 16 0 16 15 0
23 -15 29 -23 9 -4 -10 -6 -10 -6 0 -1 6 -10 12 -21 12 -15 0 -20 -7 -20 -25z"/>
<path d="M1210 2231 c0 -14 2 -14 10 -1 8 12 10 12 10 1 0 -8 3 -11 7 -8 3 4
13 1 21 -6 13 -9 14 -9 8 1 -4 6 -3 12 3 12 5 0 13 -4 16 -10 3 -5 11 -10 17
-10 7 0 7 5 -1 14 -9 11 -9 15 1 19 7 3 -11 5 -39 5 -42 -1 -53 -4 -53 -17z"/>
<path d="M1391 2234 c0 -11 3 -14 6 -6 3 7 2 16 -1 19 -3 4 -6 -2 -5 -13z"/>
<path d="M1411 2234 c0 -11 3 -14 6 -6 3 7 2 16 -1 19 -3 4 -6 -2 -5 -13z"/>
<path d="M1434 2234 c3 -9 6 -18 6 -20 0 -3 4 -3 10 1 11 7 2 35 -12 35 -6 0
-7 -7 -4 -16z"/>
<path d="M1491 2234 c0 -11 3 -14 6 -6 3 7 2 16 -1 19 -3 4 -6 -2 -5 -13z"/>
<path d="M1512 2233 c5 -25 28 -28 28 -4 0 12 -6 21 -16 21 -9 0 -14 -7 -12
-17z"/>
<path d="M1553 2236 c3 -27 62 -31 64 -5 1 14 -5 19 -23 19 -16 0 -24 -6 -25
-17 0 -16 -2 -15 -10 2 -8 18 -9 18 -6 1z"/>
<path d="M1653 2230 c1 -20 8 -25 20 -14 7 8 -3 34 -13 34 -5 0 -8 -9 -7 -20z"/>
<path d="M1757 2237 c-3 -8 1 -14 9 -14 8 0 14 6 14 14 0 7 -4 13 -9 13 -5 0
-11 -6 -14 -13z"/>
<path d="M1791 2233 c0 -13 2 -14 6 -4 5 11 7 11 14 0 7 -12 9 -11 9 1 0 13 1
13 10 0 8 -13 10 -12 10 3 0 12 -8 17 -25 17 -17 0 -25 -5 -24 -17z"/>
<path d="M1850 2236 c0 -8 5 -18 12 -22 7 -4 8 -3 4 4 -4 7 -2 12 3 12 6 0 11
5 11 10 0 6 -7 10 -15 10 -8 0 -15 -6 -15 -14z"/>
<path d="M3224 2240 c2 -16 20 -14 24 2 3 10 2 10 -6 -1 -7 -9 -11 -10 -15 -2
-4 7 -5 8 -3 1z"/>
<path d="M3281 2237 c-1 -11 -6 -15 -13 -11 -7 5 -8 3 -3 -5 10 -16 29 2 22
21 -4 8 -6 7 -6 -5z"/>
<path d="M3341 2234 c0 -11 3 -14 6 -6 3 7 2 16 -1 19 -3 4 -6 -2 -5 -13z"/>
<path d="M3380 2230 c0 -11 4 -20 10 -20 5 0 7 7 4 15 -4 8 -1 15 5 15 6 0 11
-4 11 -9 0 -6 9 -9 20 -8 11 1 20 8 20 15 0 11 -3 12 -14 3 -10 -8 -16 -9 -21
-1 -11 18 -35 11 -35 -10z"/>
<path d="M3511 2233 c0 -13 2 -14 6 -4 5 11 7 11 14 0 7 -11 9 -10 9 4 0 9 -7
17 -15 17 -8 0 -15 -8 -14 -17z"/>
<path d="M3550 2235 c0 -7 5 -17 12 -21 7 -5 8 -3 3 6 -6 10 -3 12 12 8 11 -3
20 0 20 6 0 7 -11 13 -24 14 -14 1 -23 -4 -23 -13z"/>
<path d="M3730 2246 c0 -2 7 -9 15 -16 13 -11 14 -10 9 4 -5 14 -24 23 -24 12z"/>
<path d="M3791 2234 c0 -11 3 -14 6 -6 3 7 2 16 -1 19 -3 4 -6 -2 -5 -13z"/>
<path d="M3811 2234 c0 -11 3 -14 6 -6 3 7 2 16 -1 19 -3 4 -6 -2 -5 -13z"/>
<path d="M3851 2234 c0 -11 3 -14 6 -6 3 7 2 16 -1 19 -3 4 -6 -2 -5 -13z"/>
<path d="M3897 2243 c-12 -12 -7 -22 8 -17 8 4 15 10 15 15 0 11 -14 12 -23 2z"/>
<path d="M3950 2246 c0 -2 7 -9 15 -16 13 -11 14 -10 9 4 -5 14 -24 23 -24 12z"/>
<path d="M4061 2237 c-8 -10 -7 -14 4 -14 8 0 15 6 15 14 0 7 -2 13 -4 13 -2
0 -9 -6 -15 -13z"/>
<path d="M4091 2234 c0 -11 3 -14 6 -6 3 7 2 16 -1 19 -3 4 -6 -2 -5 -13z"/>
<path d="M4111 2233 c0 -13 2 -14 6 -4 5 11 7 11 14 0 7 -11 9 -10 9 4 0 9 -7
17 -15 17 -8 0 -15 -8 -14 -17z"/>
<path d="M4150 2234 c0 -7 5 -16 12 -20 7 -4 8 -3 4 4 -4 7 -2 12 3 12 6 0 11
4 11 8 0 5 -7 9 -15 9 -8 0 -15 -6 -15 -13z"/>
<path d="M793 2175 c-18 -19 -16 -45 2 -45 10 0 15 10 15 30 0 34 0 34 -17 15z"/>
<path d="M860 2176 c0 -7 -7 -19 -15 -26 -9 -8 -15 -8 -15 -2 0 6 6 13 13 15
7 3 4 6 -6 6 -12 1 -17 -5 -15 -16 2 -10 13 -18 26 -19 18 -1 22 4 22 27 0 16
-2 29 -5 29 -3 0 -5 -6 -5 -14z"/>
<path d="M1319 2172 c-18 -19 -15 -42 7 -42 9 0 14 11 14 30 0 34 0 34 -21 12z"/>
<path d="M1542 2160 c0 -19 2 -27 5 -17 2 9 2 25 0 35 -3 9 -5 1 -5 -18z"/>
<path d="M992 2160 c0 -14 2 -19 5 -12 2 6 2 18 0 25 -3 6 -5 1 -5 -13z"/>
<path d="M1351 2163 c-1 -13 2 -23 7 -24 4 0 15 -2 25 -4 9 -2 24 3 32 12 12
11 15 11 15 1 0 -10 2 -10 9 1 7 11 9 11 14 0 4 -10 6 -9 6 4 1 14 -7 17 -44
15 -25 0 -45 -6 -46 -12 0 -6 -4 -2 -9 9 -8 19 -9 19 -9 -2z"/>
<path d="M1492 2155 c0 -16 2 -22 5 -12 2 9 2 23 0 30 -3 6 -5 -1 -5 -18z"/>
<path d="M1589 2164 c0 -10 -3 -13 -6 -6 -7 19 -22 14 -20 -7 1 -12 8 -18 22
-17 14 1 21 7 20 18 -2 25 -15 35 -16 12z"/>
<path d="M1621 2162 c-1 -13 3 -20 9 -17 6 3 10 2 10 -3 0 -6 7 -12 15 -16 11
-4 15 2 15 20 0 21 -4 25 -20 21 -10 -3 -21 0 -24 7 -2 6 -5 1 -5 -12z"/>
<path d="M3771 2162 c-1 -15 -5 -21 -13 -16 -7 5 -8 3 -3 -5 10 -18 28 2 22
25 -4 15 -5 14 -6 -4z"/>
<path d="M3792 2160 c0 -14 2 -19 5 -12 2 6 2 18 0 25 -3 6 -5 1 -5 -13z"/>
<path d="M3932 2160 c0 -14 2 -19 5 -12 2 6 2 18 0 25 -3 6 -5 1 -5 -13z"/>
<path d="M4035 2170 c-3 -5 -1 -10 4 -10 6 0 11 5 11 10 0 6 -2 10 -4 10 -3 0
-8 -4 -11 -10z"/>
<path d="M4062 2160 c0 -14 2 -19 5 -12 2 6 2 18 0 25 -3 6 -5 1 -5 -13z"/>
<path d="M880 2155 c0 -28 43 -29 53 -1 4 9 -5 13 -24 14 -18 0 -29 -4 -29
-13z m30 1 c0 -3 -4 -8 -10 -11 -5 -3 -10 -1 -10 4 0 6 5 11 10 11 6 0 10 -2
10 -4z"/>
<path d="M1011 2153 c0 -13 2 -14 6 -4 5 11 7 11 14 0 7 -11 9 -10 9 4 0 9 -7
17 -15 17 -8 0 -15 -8 -14 -17z"/>
<path d="M1072 2153 c2 -9 10 -19 18 -21 13 -4 13 -3 2 10 -10 13 -10 17 0 21
8 3 6 6 -5 6 -12 1 -17 -5 -15 -16z"/>
<path d="M1111 2153 c-1 -14 5 -23 14 -23 9 0 15 9 15 23 0 16 -3 18 -9 8 -7
-11 -9 -11 -14 0 -3 8 -6 4 -6 -8z"/>
<path d="M1151 2148 c1 -18 2 -19 6 -5 5 19 30 17 26 -2 -2 -6 2 -11 7 -11 6
0 10 9 10 20 0 15 -7 20 -25 20 -20 0 -25 -5 -24 -22z"/>
<path d="M1214 2151 c2 -25 26 -24 25 1 0 21 -1 22 -8 3 -7 -16 -9 -17 -13 -5
-4 11 -5 12 -4 1z"/>
<path d="M1250 2160 c0 -5 6 -10 13 -10 8 0 7 -4 -3 -10 -8 -5 -10 -10 -4 -10
16 0 23 10 17 26 -6 16 -23 19 -23 4z"/>
<path d="M1510 2155 c0 -8 2 -15 4 -15 2 0 6 7 10 15 3 8 1 15 -4 15 -6 0 -10
-7 -10 -15z"/>
<path d="M1681 2152 c-1 -29 23 -25 26 4 3 18 2 18 -6 -1 l-8 -20 -5 20 c-5
18 -6 17 -7 -3z"/>
<path d="M1722 2153 c2 -9 10 -18 18 -20 13 -4 13 -3 0 6 -10 7 -11 11 -2 11
6 0 12 5 12 10 0 6 -7 10 -16 10 -9 0 -14 -7 -12 -17z"/>
<path d="M1783 2150 c1 -11 5 -20 9 -20 11 0 10 28 -1 35 -6 3 -9 -4 -8 -15z"/>
<path d="M1812 2153 c2 -9 10 -18 18 -20 13 -4 13 -3 0 6 -10 7 -11 11 -2 11
6 0 12 5 12 10 0 6 -7 10 -16 10 -9 0 -14 -7 -12 -17z"/>
<path d="M1851 2153 c0 -13 2 -14 6 -4 5 11 7 11 14 0 7 -12 9 -11 9 1 0 13 1
13 10 0 8 -13 10 -12 10 3 0 12 -8 17 -25 17 -17 0 -25 -5 -24 -17z"/>
<path d="M3221 2158 c-1 -21 15 -32 25 -17 4 7 3 9 -4 5 -6 -3 -13 2 -15 11
-4 16 -5 16 -6 1z"/>
<path d="M3265 2160 c-4 -7 -2 -17 4 -23 9 -9 11 -8 6 6 -7 18 10 24 18 7 3
-6 4 -5 3 2 -3 16 -23 21 -31 8z"/>
<path d="M3325 2160 c-4 -7 -2 -17 4 -23 9 -9 11 -8 6 6 -7 18 10 24 18 7 3
-6 4 -5 3 2 -3 16 -23 21 -31 8z"/>
<path d="M3516 2161 c-3 -5 2 -15 12 -22 15 -12 16 -12 5 2 -7 9 -10 19 -6 22
3 4 4 7 0 7 -3 0 -8 -4 -11 -9z"/>
<path d="M3551 2154 c0 -11 3 -14 6 -6 3 7 2 16 -1 19 -3 4 -6 -2 -5 -13z"/>
<path d="M3571 2154 c0 -11 3 -14 6 -6 3 7 2 16 -1 19 -3 4 -6 -2 -5 -13z"/>
<path d="M3590 2155 c0 -8 2 -15 4 -15 2 0 6 7 10 15 3 8 1 15 -4 15 -6 0 -10
-7 -10 -15z"/>
<path d="M3623 2152 c1 -14 5 -18 11 -12 7 7 6 14 -1 21 -9 9 -12 7 -10 -9z"/>
<path d="M3651 2158 c-1 -21 15 -32 25 -17 4 7 3 9 -4 5 -6 -3 -13 2 -15 11
-4 16 -5 16 -6 1z"/>
<path d="M3699 2157 c6 -8 7 -18 3 -22 -4 -5 -2 -5 5 -1 14 8 6 36 -9 36 -7 0
-6 -5 1 -13z"/>
<path d="M3810 2157 c0 -8 7 -14 15 -14 8 0 15 6 15 14 0 7 -7 13 -15 13 -8 0
-15 -6 -15 -13z"/>
<path d="M3856 2163 c5 -5 12 -12 16 -18 4 -6 8 -2 8 8 0 9 -7 17 -17 17 -9 0
-12 -3 -7 -7z"/>
<path d="M3891 2154 c0 -11 3 -14 6 -6 3 7 2 16 -1 19 -3 4 -6 -2 -5 -13z"/>
<path d="M3981 2154 c0 -11 3 -14 6 -6 3 7 2 16 -1 19 -3 4 -6 -2 -5 -13z"/>
<path d="M4000 2160 c0 -5 5 -10 11 -10 5 0 7 -5 3 -12 -4 -7 -3 -8 5 -4 9 6
9 11 0 22 -14 17 -19 18 -19 4z"/>
<path d="M4084 2151 c2 -25 26 -24 25 1 0 21 -1 22 -8 3 -7 -16 -9 -17 -13 -5
-4 11 -5 12 -4 1z"/>
<path d="M4124 2152 c2 -21 21 -19 23 3 l3 20 -9 -20 c-6 -16 -9 -17 -13 -5
-3 8 -4 9 -4 2z"/>
<path d="M4160 2154 c0 -7 5 -16 12 -20 7 -4 8 -3 4 4 -4 7 -2 12 3 12 6 0 11
4 11 8 0 5 -7 9 -15 9 -8 0 -15 -6 -15 -13z"/>
<path d="M4220 2161 c0 -5 5 -13 10 -16 6 -3 10 -2 10 4 0 5 -4 13 -10 16 -5
3 -10 2 -10 -4z"/>
<path d="M4257 2163 c-12 -12 -7 -22 8 -17 8 4 15 10 15 15 0 11 -14 12 -23 2z"/>
<path d="M4291 2153 c0 -13 2 -14 6 -4 3 8 8 9 12 3 4 -6 11 -5 19 4 11 12 9
14 -13 14 -17 0 -25 -5 -24 -17z"/>
<path d="M1040 2097 c0 -9 -12 -11 -40 -9 -38 4 -40 2 -40 -22 0 -23 3 -25 19
-16 11 5 27 7 37 3 13 -5 15 -3 9 7 -6 10 -4 12 8 7 13 -5 17 -1 17 18 0 14
-2 25 -5 25 -3 0 -5 -6 -5 -13z"/>
<path d="M1062 2085 c0 -16 2 -22 5 -12 2 9 2 23 0 30 -3 6 -5 -1 -5 -18z"/>
<path d="M1472 2085 c0 -16 2 -22 5 -12 2 9 2 23 0 30 -3 6 -5 -1 -5 -18z"/>
<path d="M1510 2081 c0 -32 16 -42 26 -16 3 8 -1 22 -10 30 -15 15 -16 14 -16
-14z"/>
<path d="M1552 2080 c0 -19 2 -27 5 -17 2 9 2 25 0 35 -3 9 -5 1 -5 -18z"/>
<path d="M1668 2098 c-3 -7 -22 -11 -51 -10 -41 3 -47 0 -47 -17 0 -15 5 -19
22 -16 12 3 25 10 30 17 6 10 8 10 8 0 0 -7 5 -10 10 -7 6 3 10 1 10 -4 0 -6
7 -11 15 -11 10 0 15 10 15 30 0 31 -5 39 -12 18z"/>
<path d="M3322 2085 c0 -16 2 -22 5 -12 2 9 2 23 0 30 -3 6 -5 -1 -5 -18z"/>
<path d="M1160 2075 c0 -14 4 -25 9 -25 4 0 6 11 3 25 -2 14 -6 25 -8 25 -2 0
-4 -11 -4 -25z"/>
<path d="M1692 2080 c0 -14 2 -19 5 -12 2 6 2 18 0 25 -3 6 -5 1 -5 -13z"/>
<path d="M1710 2075 c0 -14 4 -25 9 -25 4 0 6 11 3 25 -2 14 -6 25 -8 25 -2 0
-4 -11 -4 -25z"/>
<path d="M3302 2080 c0 -14 2 -19 5 -12 2 6 2 18 0 25 -3 6 -5 1 -5 -13z"/>
<path d="M3422 2075 c0 -16 2 -22 5 -12 2 9 2 23 0 30 -3 6 -5 -1 -5 -18z"/>
<path d="M3812 2080 c0 -14 2 -19 5 -12 2 6 2 18 0 25 -3 6 -5 1 -5 -13z"/>
<path d="M3921 2091 c-7 -5 -23 -6 -34 -3 -19 5 -19 4 -6 -10 10 -12 17 -13
27 -5 10 8 16 7 23 -4 7 -11 9 -9 9 9 0 25 0 25 -19 13z"/>
<path d="M3972 2075 c0 -16 2 -22 5 -12 2 9 2 23 0 30 -3 6 -5 -1 -5 -18z"/>
<path d="M1082 2073 c2 -9 10 -18 18 -20 13 -4 13 -3 0 6 -10 7 -11 11 -2 11
6 0 12 5 12 10 0 6 -7 10 -16 10 -9 0 -14 -7 -12 -17z"/>
<path d="M1120 2073 c0 -15 2 -15 9 -4 7 11 10 10 14 -5 4 -16 5 -16 6 4 1 13
-5 22 -14 22 -8 0 -15 -8 -15 -17z"/>
<path d="M1182 2073 c4 -24 23 -27 25 -3 1 12 -4 20 -13 20 -9 0 -14 -7 -12
-17z"/>
<path d="M1223 2070 c1 -13 6 -19 15 -15 7 3 22 0 33 -5 16 -9 19 -7 19 15 0
18 -5 25 -19 25 -11 0 -22 -6 -24 -12 -4 -10 -6 -10 -6 0 -1 6 -5 12 -10 12
-6 0 -9 -9 -8 -20z"/>
<path d="M1302 2070 c0 -14 2 -19 5 -12 2 6 2 18 0 25 -3 6 -5 1 -5 -13z"/>
<path d="M1320 2071 c0 -8 3 -11 7 -8 3 4 13 1 21 -6 13 -9 14 -9 8 1 -4 6 -2
12 3 12 6 0 11 4 11 10 0 5 -11 9 -25 8 -14 -1 -25 -9 -25 -17z"/>
<path d="M1397 2073 c3 -7 9 -13 14 -13 5 0 9 6 9 13 0 6 5 4 11 -5 5 -10 15
-18 22 -18 7 0 6 4 -3 10 -10 6 -11 10 -2 10 6 0 12 4 12 10 0 5 -15 9 -34 7
-22 -1 -32 -6 -29 -14z"/>
<path d="M1750 2073 c0 -15 2 -15 9 -4 8 12 12 12 25 -2 19 -19 46 -12 46 12
0 14 -2 14 -10 1 -7 -12 -12 -12 -22 -2 -18 18 -48 15 -48 -5z"/>
<path d="M1881 2076 c-8 -10 -9 -16 -1 -21 5 -3 13 1 16 10 9 22 -1 29 -15 11z"/>
<path d="M3220 2069 c0 -11 7 -19 18 -19 14 0 15 2 2 10 -8 5 -11 12 -7 16 4
4 15 0 25 -9 10 -10 23 -17 28 -17 5 0 2 5 -6 10 -10 6 -11 10 -2 10 29 0 9
16 -23 17 -28 1 -35 -3 -35 -18z"/>
<path d="M3340 2074 c0 -7 5 -16 12 -20 7 -4 8 -3 4 4 -4 7 -2 12 3 12 6 0 11
4 11 8 0 5 -7 9 -15 9 -8 0 -15 -6 -15 -13z"/>
<path d="M3386 2083 c5 -5 12 -12 16 -18 4 -6 8 -2 8 8 0 9 -7 17 -17 17 -9 0
-12 -3 -7 -7z"/>
<path d="M3442 2072 c2 -9 10 -17 18 -19 13 -4 13 -3 0 6 -10 7 -11 11 -2 11
6 0 12 4 12 8 0 5 -7 9 -15 9 -9 0 -15 -7 -13 -15z"/>
<path d="M3483 2070 c1 -11 5 -20 9 -20 11 0 10 28 -1 35 -6 3 -9 -4 -8 -15z"/>
<path d="M3514 2079 c-3 -6 -2 -15 4 -21 6 -6 12 -6 17 3 5 8 4 10 -3 5 -7 -4
-12 -3 -12 3 0 5 6 12 13 14 9 4 9 6 0 6 -6 1 -15 -4 -19 -10z"/>
<path d="M3571 2073 c-16 -17 -11 -25 8 -14 7 5 12 13 10 19 -2 6 -10 4 -18
-5z"/>
<path d="M3600 2076 c0 -8 5 -18 12 -22 7 -4 8 -3 4 4 -4 7 -2 12 4 12 6 0 8
5 5 10 -9 15 -25 12 -25 -4z"/>
<path d="M3690 2074 c0 -7 5 -16 12 -20 7 -4 8 -3 4 4 -4 7 -2 12 3 12 6 0 11
4 11 8 0 5 -7 9 -15 9 -8 0 -15 -6 -15 -13z"/>
<path d="M3778 2083 c6 -2 12 -9 12 -14 0 -6 -5 -7 -12 -3 -7 4 -8 3 -4 -5 9
-14 26 -5 26 15 0 8 -8 14 -17 13 -11 0 -13 -3 -5 -6z"/>
<path d="M3830 2072 c0 -10 6 -19 14 -19 8 0 11 8 8 19 -2 10 -8 18 -13 18 -5
0 -9 -8 -9 -18z"/>
<path d="M3951 2074 c0 -11 3 -14 6 -6 3 7 2 16 -1 19 -3 4 -6 -2 -5 -13z"/>
<path d="M4010 2073 c0 -10 4 -14 8 -8 4 6 11 13 16 18 5 4 2 7 -7 7 -10 0
-17 -8 -17 -17z"/>
<path d="M4141 2076 c-8 -10 -9 -16 -1 -21 5 -3 13 1 16 10 9 22 -1 29 -15 11z"/>
<path d="M3665 2070 c-3 -5 -1 -10 4 -10 6 0 11 5 11 10 0 6 -2 10 -4 10 -3 0
-8 -4 -11 -10z"/>
<path d="M1052 2005 c0 -16 2 -22 5 -12 2 9 2 23 0 30 -3 6 -5 -1 -5 -18z"/>
<path d="M1072 2005 c0 -16 2 -22 5 -12 2 9 2 23 0 30 -3 6 -5 -1 -5 -18z"/>
<path d="M1242 2014 c-10 -10 -10 -14 -1 -14 7 0 9 -3 6 -6 -4 -4 -13 -1 -22
6 -12 10 -15 10 -15 -1 0 -9 -3 -10 -8 -3 -4 6 -15 13 -24 17 -14 5 -18 1 -18
-18 0 -14 4 -25 10 -25 5 0 7 8 4 18 -5 14 -4 14 5 2 5 -8 24 -15 41 -16 32
-2 45 12 38 39 -3 13 -5 13 -16 1z"/>
<path d="M1462 2005 c0 -16 2 -22 5 -12 2 9 2 23 0 30 -3 6 -5 -1 -5 -18z"/>
<path d="M1482 2005 c0 -16 2 -22 5 -12 2 9 2 23 0 30 -3 6 -5 -1 -5 -18z"/>
<path d="M1091 2003 c-1 -13 1 -23 3 -23 2 0 11 -2 18 -5 9 -4 14 2 14 15 0
12 -5 19 -12 16 -7 -3 -15 0 -18 7 -2 7 -5 2 -5 -10z"/>
<path d="M1142 2000 c0 -14 2 -19 5 -12 2 6 2 18 0 25 -3 6 -5 1 -5 -13z"/>
<path d="M1272 2000 c0 -14 2 -19 5 -12 2 6 2 18 0 25 -3 6 -5 1 -5 -13z"/>
<path d="M1370 1998 c0 -19 2 -20 10 -8 13 19 13 30 0 30 -5 0 -10 -10 -10
-22z"/>
<path d="M1396 2003 c-4 -9 -2 -21 4 -27 7 -7 10 -2 10 17 0 31 -5 34 -14 10z"/>
<path d="M1561 1998 c-1 -27 6 -29 60 -19 4 0 9 7 12 15 4 9 -4 13 -24 14 -20
0 -29 -4 -30 -16 -1 -11 -4 -7 -9 8 l-8 25 -1 -27z m49 -2 c0 -3 -4 -8 -10
-11 -5 -3 -10 -1 -10 4 0 6 5 11 10 11 6 0 10 -2 10 -4z"/>
<path d="M1652 1999 c4 -29 51 -35 56 -6 2 10 -3 17 -12 17 -8 0 -20 -8 -26
-17 -11 -17 -11 -17 -6 -1 3 10 0 20 -5 24 -7 4 -9 -3 -7 -17z m48 -9 c0 -5
-2 -10 -4 -10 -3 0 -8 5 -11 10 -3 6 -1 10 4 10 6 0 11 -4 11 -10z"/>
<path d="M3412 1995 c0 -16 2 -22 5 -12 2 9 2 23 0 30 -3 6 -5 -1 -5 -18z"/>
<path d="M3620 2001 c0 -25 6 -27 13 -6 4 8 2 17 -3 20 -6 4 -10 -3 -10 -14z"/>
<path d="M3647 2006 c-4 -10 -5 -21 -2 -24 9 -9 17 6 13 25 -3 17 -4 17 -11
-1z"/>
<path d="M3712 2000 c0 -14 2 -19 5 -12 2 6 2 18 0 25 -3 6 -5 1 -5 -13z"/>
<path d="M3732 2000 c0 -14 2 -19 5 -12 2 6 2 18 0 25 -3 6 -5 1 -5 -13z"/>
<path d="M3805 2010 c-3 -5 -1 -10 4 -10 6 0 11 5 11 10 0 6 -2 10 -4 10 -3 0
-8 -4 -11 -10z"/>
<path d="M3902 2000 c0 -14 2 -19 5 -12 2 6 2 18 0 25 -3 6 -5 1 -5 -13z"/>
<path d="M980 1995 c6 -7 6 -16 2 -21 -4 -4 0 -3 10 4 12 10 17 10 20 1 5 -16
28 -3 28 16 0 8 -12 13 -35 12 -24 -1 -31 -4 -25 -12z"/>
<path d="M1290 1993 c0 -15 2 -15 9 -4 7 11 10 10 14 -5 4 -16 5 -16 6 4 1 13
-5 22 -14 22 -8 0 -15 -8 -15 -17z"/>
<path d="M1424 1992 c2 -21 21 -19 23 3 l3 20 -9 -20 c-6 -16 -9 -17 -13 -5
-3 8 -4 9 -4 2z"/>
<path d="M1500 1990 c0 -11 7 -20 15 -20 8 0 15 9 15 20 0 11 -7 20 -15 20 -8
0 -15 -9 -15 -20z"/>
<path d="M1720 1995 c0 -8 2 -15 4 -15 2 0 6 7 10 15 3 8 1 15 -4 15 -6 0 -10
-7 -10 -15z"/>
<path d="M1762 1993 c2 -9 9 -18 17 -21 9 -3 11 0 6 8 -6 10 -4 12 8 7 8 -3
18 0 20 7 4 9 -5 13 -24 14 -23 0 -29 -3 -27 -15z"/>
<path d="M1830 1990 c0 -11 7 -20 15 -20 8 0 15 9 15 20 0 11 -7 20 -15 20 -8
0 -15 -9 -15 -20z"/>
<path d="M3227 1999 c7 -9 9 -20 5 -25 -4 -5 3 0 16 10 12 11 25 16 29 12 4
-4 1 -12 -7 -17 -13 -9 -13 -10 0 -6 20 5 26 37 6 37 -8 0 -18 -5 -21 -10 -5
-8 -12 -7 -23 2 -15 11 -15 11 -5 -3z"/>
<path d="M3355 2000 c-8 -13 3 -30 18 -30 8 0 7 3 -2 9 -7 5 -10 14 -7 20 4 6
5 11 2 11 -3 0 -8 -4 -11 -10z"/>
<path d="M3391 1994 c0 -11 3 -14 6 -6 3 7 2 16 -1 19 -3 4 -6 -2 -5 -13z"/>
<path d="M3431 1998 c-1 -21 15 -32 25 -17 4 7 3 9 -4 5 -6 -3 -13 2 -15 11
-4 16 -5 16 -6 1z"/>
<path d="M3474 1999 c-3 -6 -2 -15 4 -21 6 -6 12 -6 17 3 5 8 4 10 -3 5 -7 -4
-12 -3 -12 3 0 5 6 12 13 14 9 4 9 6 0 6 -6 1 -15 -4 -19 -10z"/>
<path d="M3546 2003 c5 -5 12 -12 16 -18 4 -6 8 -2 8 8 0 9 -7 17 -17 17 -9 0
-12 -3 -7 -7z"/>
<path d="M3672 1990 c0 -14 2 -19 5 -12 2 6 2 18 0 25 -3 6 -5 1 -5 -13z"/>
<path d="M3691 1994 c0 -11 3 -14 6 -6 3 7 2 16 -1 19 -3 4 -6 -2 -5 -13z"/>
<path d="M3757 2003 c-12 -11 -8 -30 7 -30 8 0 11 8 8 19 -5 20 -6 21 -15 11z"/>
<path d="M3831 1998 c-1 -21 15 -32 25 -17 4 7 3 9 -4 5 -6 -3 -13 2 -15 11
-4 16 -5 16 -6 1z"/>
<path d="M3870 1995 c0 -8 2 -15 4 -15 2 0 6 7 10 15 3 8 1 15 -4 15 -6 0 -10
-7 -10 -15z"/>
<path d="M3922 1993 c4 -21 33 -25 33 -3 0 8 -8 16 -18 18 -14 3 -18 -1 -15
-15z m28 -3 c0 -5 -4 -10 -10 -10 -5 0 -10 5 -10 10 0 6 5 10 10 10 6 0 10 -4
10 -10z"/>
<path d="M4012 1992 c2 -9 10 -17 18 -19 13 -4 13 -3 0 6 -10 7 -11 11 -2 11
6 0 12 4 12 8 0 5 -7 9 -15 9 -9 0 -15 -7 -13 -15z"/>
<path d="M4050 1995 c0 -8 2 -15 4 -15 2 0 6 7 10 15 3 8 1 15 -4 15 -6 0 -10
-7 -10 -15z"/>
<path d="M4087 2004 c-4 -4 -7 -14 -7 -23 0 -11 3 -12 11 -4 6 6 10 16 7 23
-2 6 -7 8 -11 4z"/>
<path d="M987 1937 c-3 -8 -2 -19 3 -26 5 -9 9 -4 12 13 5 27 -6 36 -15 13z"/>
<path d="M1102 1925 c0 -16 2 -22 5 -12 2 9 2 23 0 30 -3 6 -5 -1 -5 -18z"/>
<path d="M1122 1920 c0 -19 2 -27 5 -17 2 9 2 25 0 35 -3 9 -5 1 -5 -18z"/>
<path d="M1832 1920 c0 -19 2 -27 5 -17 2 9 2 25 0 35 -3 9 -5 1 -5 -18z"/>
<path d="M1863 1934 c-16 -16 -17 -44 -3 -44 13 0 23 24 18 43 -2 13 -5 13
-15 1z"/>
<path d="M3227 1943 c-4 -3 -7 -15 -7 -26 0 -25 9 -17 15 12 4 22 2 25 -8 14z"/>
<path d="M1082 1920 c0 -14 2 -19 5 -12 2 6 2 18 0 25 -3 6 -5 1 -5 -13z"/>
<path d="M1170 1925 c-1 -11 -4 -15 -7 -7 -8 19 -22 14 -20 -8 1 -22 5 -24 25
-11 8 5 12 17 9 27 -4 18 -5 18 -7 -1z"/>
<path d="M1397 1933 c-3 -5 -1 -17 4 -28 7 -17 8 -17 8 8 1 27 -4 34 -12 20z"/>
<path d="M1570 1931 c0 -5 -9 -7 -20 -4 -15 4 -20 0 -20 -13 0 -16 2 -17 10
-4 5 8 10 10 10 4 0 -7 9 -14 20 -17 16 -4 20 0 20 19 0 13 -4 24 -10 24 -5 0
-10 -4 -10 -9z"/>
<path d="M1677 1932 c-31 -7 -16 -37 18 -36 45 3 45 3 45 22 0 14 -2 15 -10 2
-5 -8 -10 -10 -10 -4 0 15 -19 22 -43 16z m13 -16 c0 -3 -4 -8 -10 -11 -5 -3
-10 -1 -10 4 0 6 5 11 10 11 6 0 10 -2 10 -4z"/>
<path d="M3630 1922 c0 -11 4 -23 8 -26 10 -6 9 30 -1 40 -4 4 -7 -2 -7 -14z"/>
<path d="M3752 1920 c0 -14 2 -19 5 -12 2 6 2 18 0 25 -3 6 -5 1 -5 -13z"/>
<path d="M3812 1920 c0 -14 2 -19 5 -12 2 6 2 18 0 25 -3 6 -5 1 -5 -13z"/>
<path d="M3920 1920 c-1 -23 -2 -23 -10 -5 -7 16 -9 17 -9 3 -1 -9 4 -20 9
-23 12 -7 24 19 17 37 -3 7 -6 2 -7 -12z"/>
<path d="M4094 1926 c-16 -12 -17 -17 -6 -28 11 -11 12 -10 7 5 -8 19 10 24
18 5 3 -7 6 -3 6 10 1 26 1 26 -25 8z"/>
<path d="M1010 1909 c0 -21 25 -26 33 -6 4 10 6 10 6 0 1 -20 17 -15 17 6 0
13 -8 18 -28 19 -21 0 -28 -4 -28 -19z"/>
<path d="M1193 1910 c1 -20 8 -25 20 -14 7 8 -3 34 -13 34 -5 0 -8 -9 -7 -20z"/>
<path d="M1247 1924 c-8 -8 3 -34 15 -34 5 0 6 5 2 11 -4 7 -1 10 7 7 8 -3 13
-11 12 -17 -4 -13 23 -15 32 -1 3 5 13 6 22 3 11 -4 14 -3 9 5 -5 8 0 12 14
12 13 0 19 -4 14 -12 -4 -7 -3 -8 4 -4 6 4 9 12 6 19 -5 13 -125 23 -137 11z"/>
<path d="M1431 1913 c10 -11 10 -14 2 -9 -7 4 -13 2 -13 -3 0 -6 7 -11 15 -11
8 0 15 9 15 20 0 12 -7 20 -16 20 -14 0 -15 -2 -3 -17z"/>
<path d="M1463 1910 c1 -11 5 -20 9 -20 4 0 8 9 8 20 0 11 -4 20 -9 20 -6 0
-9 -9 -8 -20z"/>
<path d="M1511 1914 c0 -11 3 -14 6 -6 3 7 2 16 -1 19 -3 4 -6 -2 -5 -13z"/>
<path d="M1600 1916 c0 -8 5 -18 12 -22 7 -4 8 -3 4 4 -4 7 -2 12 3 12 6 0 11
5 11 10 0 6 -7 10 -15 10 -8 0 -15 -6 -15 -14z"/>
<path d="M1641 1914 c0 -11 3 -14 6 -6 3 7 2 16 -1 19 -3 4 -6 -2 -5 -13z"/>
<path d="M1750 1913 c0 -15 2 -16 10 -3 9 13 10 13 10 0 0 -13 2 -13 9 -1 7
11 10 10 14 -5 4 -16 5 -16 6 4 1 17 -4 22 -24 22 -17 0 -25 -5 -25 -17z"/>
<path d="M3257 1924 c-4 -4 -7 -14 -7 -23 0 -11 3 -12 11 -4 6 6 10 16 7 23
-2 6 -7 8 -11 4z"/>
<path d="M3285 1920 c-8 -13 3 -30 18 -30 8 0 7 3 -2 9 -7 5 -10 14 -7 20 4 6
5 11 2 11 -3 0 -8 -4 -11 -10z"/>
<path d="M3321 1914 c0 -11 3 -14 6 -6 3 7 2 16 -1 19 -3 4 -6 -2 -5 -13z"/>
<path d="M3383 1911 c0 -11 5 -18 9 -15 4 3 5 11 1 19 -7 21 -12 19 -10 -4z"/>
<path d="M3411 1914 c0 -11 3 -14 6 -6 3 7 2 16 -1 19 -3 4 -6 -2 -5 -13z"/>
<path d="M3433 1912 c1 -14 5 -18 11 -12 7 7 6 14 -1 21 -9 9 -12 7 -10 -9z"/>
<path d="M3485 1920 c-8 -13 3 -30 18 -30 7 0 6 4 -3 10 -10 6 -11 10 -2 10 6
0 12 5 12 10 0 6 -4 10 -9 10 -6 0 -13 -4 -16 -10z"/>
<path d="M3521 1914 c0 -11 3 -14 6 -6 3 7 2 16 -1 19 -3 4 -6 -2 -5 -13z"/>
<path d="M3540 1911 c0 -11 -6 -22 -12 -24 -8 -3 -6 -6 5 -6 12 -1 17 7 17 24
0 14 -2 25 -5 25 -3 0 -5 -9 -5 -19z"/>
<path d="M3562 1913 c2 -9 10 -18 18 -20 13 -4 13 -3 0 6 -10 7 -11 11 -2 11
6 0 12 5 12 10 0 6 -7 10 -16 10 -9 0 -14 -7 -12 -17z"/>
<path d="M3603 1910 c1 -11 5 -20 9 -20 11 0 10 28 -1 35 -6 3 -9 -4 -8 -15z"/>
<path d="M3660 1912 c0 -10 6 -19 14 -19 8 0 11 8 8 19 -2 10 -8 18 -13 18 -5
0 -9 -8 -9 -18z"/>
<path d="M3703 1911 c0 -11 5 -18 9 -15 4 3 5 11 1 19 -7 21 -12 19 -10 -4z"/>
<path d="M3771 1913 c0 -13 2 -14 6 -4 5 11 7 11 14 0 7 -11 9 -10 9 4 0 9 -7
17 -15 17 -8 0 -15 -8 -14 -17z"/>
<path d="M3835 1920 c-8 -13 3 -30 18 -30 7 0 6 4 -3 10 -10 6 -11 10 -2 10 6
0 12 5 12 10 0 6 -4 10 -9 10 -6 0 -13 -4 -16 -10z"/>
<path d="M3870 1915 c0 -8 2 -15 4 -15 2 0 6 7 10 15 3 8 1 15 -4 15 -6 0 -10
-7 -10 -15z"/>
<path d="M3944 1912 c2 -21 21 -19 23 3 l3 20 -9 -20 c-6 -16 -9 -17 -13 -5
-3 8 -4 9 -4 2z"/>
<path d="M3980 1913 c0 -12 3 -14 8 -7 4 7 16 14 27 17 15 4 14 5 -7 6 -21 1
-28 -4 -28 -16z"/>
<path d="M992 1840 c0 -19 2 -27 5 -17 2 9 2 25 0 35 -3 9 -5 1 -5 -18z"/>
<path d="M1131 1863 c-1 -8 -16 -13 -42 -13 -33 0 -40 -3 -37 -17 2 -12 14
-18 41 -19 41 -1 52 11 44 43 -3 10 -5 12 -6 6z m-51 -33 c0 -5 -4 -10 -10
-10 -5 0 -10 5 -10 10 0 6 5 10 10 10 6 0 10 -4 10 -10z"/>
<path d="M1452 1840 c0 -19 2 -27 5 -17 2 9 2 25 0 35 -3 9 -5 1 -5 -18z"/>
<path d="M1502 1845 c0 -16 2 -22 5 -12 2 9 2 23 0 30 -3 6 -5 -1 -5 -18z"/>
<path d="M1567 1863 c-11 -10 -8 -41 3 -48 6 -4 17 -2 25 5 9 8 15 8 20 0 8
-12 46 -3 57 14 5 8 8 7 8 -2 0 -7 5 -10 10 -7 6 3 10 1 10 -4 0 -6 5 -11 11
-11 5 0 7 5 4 10 -3 6 -2 10 4 10 5 0 13 -4 16 -10 3 -5 12 -10 18 -10 7 0 6
4 -3 10 -12 8 -12 12 -2 18 7 5 -20 9 -65 10 -42 1 -81 6 -87 12 -12 12 -20
13 -29 3z m25 -35 c-9 -9 -12 -7 -12 12 0 19 3 21 12 12 9 -9 9 -15 0 -24z
m48 2 c0 -5 -4 -10 -10 -10 -5 0 -10 5 -10 10 0 6 5 10 10 10 6 0 10 -4 10
-10z"/>
<path d="M967 1853 c-3 -5 -1 -17 4 -28 7 -17 8 -17 8 8 1 27 -4 34 -12 20z"/>
<path d="M1230 1835 c0 -14 4 -25 9 -25 4 0 6 11 3 25 -2 14 -6 25 -8 25 -2 0
-4 -11 -4 -25z"/>
<path d="M3220 1842 c0 -11 4 -23 8 -26 10 -6 9 30 -1 40 -4 4 -7 -2 -7 -14z"/>
<path d="M3762 1840 c0 -14 2 -19 5 -12 2 6 2 18 0 25 -3 6 -5 1 -5 -13z"/>
<path d="M3822 1840 c0 -14 2 -19 5 -12 2 6 2 18 0 25 -3 6 -5 1 -5 -13z"/>
<path d="M3852 1840 c0 -14 2 -19 5 -12 2 6 2 18 0 25 -3 6 -5 1 -5 -13z"/>
<path d="M1011 1828 c1 -20 2 -20 6 -4 4 15 7 16 14 5 7 -11 9 -11 9 4 0 9 -7
17 -15 17 -9 0 -15 -9 -14 -22z"/>
<path d="M1151 1832 c-1 -28 23 -25 27 4 2 14 1 16 -6 5 -8 -11 -10 -11 -15 0
-3 8 -6 4 -6 -9z"/>
<path d="M1190 1833 c0 -15 2 -15 9 -4 7 11 10 10 14 -5 4 -16 5 -16 6 4 1 13
-5 22 -14 22 -8 0 -15 -8 -15 -17z"/>
<path d="M1270 1834 c0 -8 5 -14 10 -14 6 0 10 5 10 11 0 6 7 3 16 -5 17 -18
39 -22 29 -6 -3 6 -2 10 4 10 5 0 13 -4 16 -10 3 -5 11 -10 17 -10 7 0 7 5 -1
14 -9 11 -9 15 1 18 7 3 -13 5 -44 5 -43 1 -58 -2 -58 -13z"/>
<path d="M1411 1833 c0 -13 2 -14 6 -4 5 11 7 11 14 0 7 -11 9 -10 9 4 0 9 -7
17 -15 17 -8 0 -15 -8 -14 -17z"/>
<path d="M1473 1830 c1 -11 5 -20 9 -20 4 0 8 9 8 20 0 11 -4 20 -9 20 -6 0
-9 -9 -8 -20z"/>
<path d="M1791 1833 c0 -13 2 -14 6 -4 5 11 7 11 14 0 7 -11 9 -10 9 4 0 9 -7
17 -15 17 -8 0 -15 -8 -14 -17z"/>
<path d="M1832 1833 c5 -25 28 -28 28 -4 0 12 -6 21 -16 21 -9 0 -14 -7 -12
-17z"/>
<path d="M1871 1828 c1 -20 2 -20 6 -4 4 15 7 16 14 5 7 -11 9 -11 9 4 0 9 -7
17 -15 17 -9 0 -15 -9 -14 -22z"/>
<path d="M3276 1843 c5 -5 12 -12 16 -18 4 -6 8 -2 8 8 0 9 -7 17 -17 17 -9 0
-12 -3 -7 -7z"/>
<path d="M3341 1834 c0 -11 3 -14 6 -6 3 7 2 16 -1 19 -3 4 -6 -2 -5 -13z"/>
<path d="M3361 1838 c-1 -21 15 -32 25 -17 4 7 3 9 -4 5 -6 -3 -13 2 -15 11
-4 16 -5 16 -6 1z"/>
<path d="M3401 1838 c-1 -21 15 -32 25 -17 4 7 3 9 -4 5 -6 -3 -13 2 -15 11
-4 16 -5 16 -6 1z"/>
<path d="M3530 1833 c0 -10 4 -14 8 -8 4 6 11 13 16 18 5 4 2 7 -7 7 -10 0
-17 -8 -17 -17z"/>
<path d="M3572 1833 c2 -9 10 -18 18 -20 13 -4 13 -3 0 6 -10 7 -11 11 -2 11
6 0 12 5 12 10 0 6 -7 10 -16 10 -9 0 -14 -7 -12 -17z"/>
<path d="M3610 1836 c0 -8 4 -17 9 -20 5 -4 7 3 4 14 -6 23 -13 26 -13 6z"/>
<path d="M3676 1843 c5 -5 12 -12 16 -18 4 -6 8 -2 8 8 0 9 -7 17 -17 17 -9 0
-12 -3 -7 -7z"/>
<path d="M3733 1831 c0 -11 5 -18 9 -15 4 3 5 11 1 19 -7 21 -12 19 -10 -4z"/>
<path d="M3871 1838 c-1 -21 15 -32 25 -17 4 7 3 9 -4 5 -6 -3 -13 2 -15 11
-4 16 -5 16 -6 1z"/>
<path d="M3910 1833 c0 -10 4 -14 8 -8 4 6 11 13 16 18 5 4 2 7 -7 7 -10 0
-17 -8 -17 -17z"/>
<path d="M3952 1833 c2 -9 10 -18 18 -20 13 -4 13 -3 0 6 -10 7 -11 11 -2 11
6 0 12 5 12 10 0 6 -7 10 -16 10 -9 0 -14 -7 -12 -17z"/>
<path d="M3990 1836 c0 -8 4 -17 9 -20 5 -4 7 3 4 14 -6 23 -13 26 -13 6z"/>
<path d="M4056 1843 c5 -5 12 -12 16 -18 4 -6 8 -2 8 8 0 9 -7 17 -17 17 -9 0
-12 -3 -7 -7z"/>
<path d="M4100 1840 c13 -9 13 -11 0 -21 -13 -9 -13 -10 0 -6 22 6 25 37 3 37
-15 0 -16 -2 -3 -10z"/>
<path d="M4131 1833 c0 -13 2 -14 6 -4 5 11 7 11 14 0 7 -11 9 -10 9 4 0 9 -7
17 -15 17 -8 0 -15 -8 -14 -17z"/>
<path d="M1304 1779 c-3 -6 0 -15 7 -20 12 -8 12 -10 0 -18 -10 -6 -3 -9 22
-8 22 1 32 4 24 9 -8 5 -7 8 6 8 9 0 17 -4 17 -10 0 -5 7 -10 15 -10 10 0 15
10 15 31 0 27 -2 29 -15 16 -8 -9 -24 -13 -35 -10 -12 3 -20 0 -20 -6 0 -7 -5
-9 -11 -6 -6 4 -8 13 -5 21 6 17 -10 19 -20 3z"/>
<path d="M3812 1775 c-7 -9 -8 -15 -2 -15 5 0 10 -5 10 -11 0 -5 -4 -7 -10 -4
-5 3 -10 1 -10 -4 0 -6 7 -11 15 -11 10 0 15 10 15 30 0 34 0 34 -18 15z"/>
<path d="M1157 1773 c-4 -3 -27 -5 -52 -5 -34 2 -45 -1 -45 -13 0 -8 5 -15 10
-15 6 0 10 6 10 13 0 9 3 8 9 -2 7 -11 9 -11 14 0 4 11 6 10 6 -2 1 -11 11
-16 36 -16 27 0 34 4 32 18 -4 23 -12 31 -20 22z"/>
<path d="M1442 1755 c0 -16 2 -22 5 -12 2 9 2 23 0 30 -3 6 -5 -1 -5 -18z"/>
<path d="M1471 1771 c-8 -5 -11 -16 -8 -25 10 -25 27 -19 27 9 0 28 0 28 -19
16z"/>
<path d="M1602 1755 c0 -16 2 -22 5 -12 2 9 2 23 0 30 -3 6 -5 -1 -5 -18z"/>
<path d="M3580 1761 c0 -11 4 -22 9 -25 4 -3 6 6 3 19 -5 30 -12 33 -12 6z"/>
<path d="M3720 1772 c0 -6 6 -13 13 -15 9 -4 8 -8 -3 -16 -13 -9 -13 -11 3
-11 21 0 22 23 2 40 -9 8 -15 8 -15 2z"/>
<path d="M3862 1755 c0 -16 2 -22 5 -12 2 9 2 23 0 30 -3 6 -5 -1 -5 -18z"/>
<path d="M3899 1758 c0 -22 -1 -22 -9 -3 -8 19 -9 19 -9 -2 -1 -14 5 -23 14
-23 9 0 15 9 15 25 0 31 -10 33 -11 3z"/>
<path d="M4022 1755 c0 -16 2 -22 5 -12 2 9 2 23 0 30 -3 6 -5 -1 -5 -18z"/>
<path d="M800 1759 c0 -5 6 -9 13 -9 8 0 7 -4 -3 -10 -13 -8 -13 -10 2 -10 9
0 19 6 21 13 4 10 6 10 6 0 1 -21 51 -16 52 5 0 14 2 14 9 -3 l9 -20 1 20 1
20 9 -20 c8 -19 9 -19 9 3 1 21 -3 22 -64 21 -36 -1 -65 -5 -65 -10z"/>
<path d="M940 1744 c0 -17 4 -22 15 -18 8 4 15 11 15 17 0 7 4 7 12 -1 7 -7
17 -12 23 -12 5 0 3 5 -5 10 -10 6 -11 10 -2 10 6 0 12 4 12 9 0 5 -16 9 -35
9 -30 0 -35 -3 -35 -24z"/>
<path d="M1020 1755 c0 -8 2 -15 4 -15 2 0 6 7 10 15 3 8 1 15 -4 15 -6 0 -10
-7 -10 -15z"/>
<path d="M1191 1753 c-1 -14 5 -23 14 -23 9 0 15 9 14 23 0 21 -1 21 -8 2 l-8
-20 -5 20 c-5 18 -6 18 -7 -2z"/>
<path d="M1233 1750 c1 -20 8 -25 20 -14 7 8 -3 34 -13 34 -5 0 -8 -9 -7 -20z"/>
<path d="M1522 1753 c2 -9 10 -18 18 -20 13 -4 13 -3 0 6 -10 7 -11 11 -2 11
6 0 12 5 12 10 0 6 -7 10 -16 10 -9 0 -14 -7 -12 -17z"/>
<path d="M1561 1748 c1 -20 2 -20 6 -4 4 15 7 16 14 5 7 -11 9 -11 9 4 0 9 -7
17 -15 17 -9 0 -15 -9 -14 -22z"/>
<path d="M1621 1748 c1 -20 2 -20 6 -4 4 15 7 16 14 5 7 -12 9 -12 9 1 0 13 1
13 10 0 5 -8 12 -11 15 -8 12 12 -6 28 -31 28 -19 0 -24 -5 -23 -22z"/>
<path d="M1700 1745 c0 -27 9 -32 28 -13 18 18 14 38 -8 38 -15 0 -20 -7 -20
-25z"/>
<path d="M1751 1753 c-1 -14 5 -23 14 -23 9 0 15 9 14 23 0 21 -1 21 -8 2 l-8
-20 -5 20 c-5 18 -6 18 -7 -2z"/>
<path d="M1791 1748 c0 -21 1 -21 8 -4 7 18 8 18 14 3 10 -25 37 -21 37 6 0
18 -2 19 -10 7 -6 -10 -10 -11 -10 -2 0 6 -9 12 -20 12 -14 0 -20 -6 -19 -22z"/>
<path d="M1863 1750 c1 -11 5 -20 9 -20 4 0 8 9 8 20 0 11 -4 20 -9 20 -6 0
-9 -9 -8 -20z"/>
<path d="M3220 1760 c0 -5 5 -10 10 -10 6 0 10 5 10 10 0 6 -4 10 -10 10 -5 0
-10 -4 -10 -10z"/>
<path d="M3243 1751 l-21 -18 27 0 c19 0 27 6 28 19 2 22 -6 22 -34 -1z"/>
<path d="M3291 1748 c1 -16 3 -18 6 -6 2 9 14 19 26 21 18 4 17 5 -5 6 -23 1
-28 -3 -27 -21z"/>
<path d="M3368 1763 c6 -2 12 -9 12 -14 0 -6 -4 -7 -10 -4 -5 3 -10 1 -10 -5
0 -18 25 -6 28 13 2 11 -3 17 -15 16 -10 0 -13 -3 -5 -6z"/>
<path d="M3400 1756 c0 -8 5 -18 12 -22 7 -4 8 -3 4 4 -4 7 -2 12 4 12 6 0 8
5 5 10 -9 15 -25 12 -25 -4z"/>
<path d="M3481 1748 c1 -16 3 -18 6 -6 2 9 14 19 26 21 18 4 17 5 -5 6 -23 1
-28 -3 -27 -21z"/>
<path d="M3545 1760 c-8 -13 3 -30 18 -30 7 0 6 4 -3 10 -10 6 -11 10 -2 10 6
0 12 5 12 10 0 6 -4 10 -9 10 -6 0 -13 -4 -16 -10z"/>
<path d="M3632 1750 c0 -14 2 -19 5 -12 2 6 2 18 0 25 -3 6 -5 1 -5 -13z"/>
<path d="M3653 1750 c1 -11 5 -20 9 -20 4 0 8 9 8 20 0 11 -4 20 -9 20 -6 0
-9 -9 -8 -20z"/>
<path d="M3762 1753 c2 -9 10 -18 18 -20 13 -4 13 -3 0 6 -10 7 -11 11 -2 11
6 0 12 5 12 10 0 6 -7 10 -16 10 -9 0 -14 -7 -12 -17z"/>
<path d="M3942 1753 c2 -9 10 -18 18 -20 13 -4 13 -3 0 6 -10 7 -11 11 -2 11
6 0 12 5 12 10 0 6 -7 10 -16 10 -9 0 -14 -7 -12 -17z"/>
<path d="M3981 1748 c0 -22 1 -22 8 -3 l8 20 5 -20 c5 -18 6 -18 7 3 1 13 -5
22 -14 22 -9 0 -15 -9 -14 -22z"/>
<path d="M4041 1748 c0 -22 1 -22 9 -3 l9 20 1 -20 1 -20 8 20 8 20 5 -20 c5
-18 6 -18 7 3 1 17 -4 22 -24 22 -19 0 -25 -5 -24 -22z"/>
<path d="M4120 1745 c0 -23 2 -25 21 -15 23 13 21 33 -4 38 -12 3 -17 -4 -17
-23z m30 5 c0 -5 -4 -10 -10 -10 -5 0 -10 5 -10 10 0 6 5 10 10 10 6 0 10 -4
10 -10z"/>
<path d="M4234 1751 c1 -17 26 -28 26 -11 0 6 -4 9 -9 5 -5 -3 -11 0 -14 7 -2
9 -4 8 -3 -1z"/>
<path d="M4283 1751 c0 -11 5 -18 9 -15 4 3 5 11 1 19 -7 21 -12 19 -10 -4z"/>
<path d="M811 1497 c-1 -26 1 -28 39 -25 25 1 40 7 40 15 0 7 5 13 10 13 6 0
10 -7 10 -15 0 -23 70 -21 71 3 0 15 2 14 10 -3 l9 -20 -3 20 c-2 18 -10 20
-80 22 -60 1 -77 -2 -77 -13 0 -23 -18 -16 -23 9 -4 19 -4 18 -6 -6z"/>
<path d="M1020 1496 c0 -24 11 -32 35 -26 6 2 20 2 32 2 16 -1 21 4 20 18 -1
13 -8 19 -22 18 -11 -1 -30 2 -42 6 -20 6 -23 4 -23 -18z m50 -6 c0 -5 -4 -10
-10 -10 -5 0 -10 5 -10 10 0 6 5 10 10 10 6 0 10 -4 10 -10z"/>
<path d="M1245 1507 c-25 -19 -10 -37 28 -34 32 3 48 32 17 32 -8 0 -18 3 -21
7 -3 5 -13 2 -24 -5z m15 -17 c0 -5 -4 -10 -10 -10 -5 0 -10 5 -10 10 0 6 5
10 10 10 6 0 10 -4 10 -10z"/>
<path d="M1321 1499 c-1 -21 3 -25 28 -25 17 0 33 7 40 18 10 17 8 18 -23 15
-20 -2 -37 1 -40 7 -2 6 -5 -1 -5 -15z m39 -9 c0 -5 -4 -10 -10 -10 -5 0 -10
5 -10 10 0 6 5 10 10 10 6 0 10 -4 10 -10z"/>
<path d="M1449 1502 c0 -11 -2 -12 -6 -4 -8 19 -22 14 -20 -8 1 -23 28 -23 39
0 5 12 7 12 7 -2 1 -25 17 -23 17 1 0 25 -36 36 -37 13z"/>
<path d="M2143 1513 c-18 -7 -16 -43 2 -43 9 0 15 9 15 25 0 14 -1 25 -2 24
-2 0 -9 -3 -15 -6z"/>
<path d="M2172 1495 c0 -16 2 -22 5 -12 2 9 2 23 0 30 -3 6 -5 -1 -5 -18z"/>
<path d="M2232 1495 c0 -16 2 -22 5 -12 2 9 2 23 0 30 -3 6 -5 -1 -5 -18z"/>
<path d="M2472 1495 c0 -16 2 -22 5 -12 2 9 2 23 0 30 -3 6 -5 -1 -5 -18z"/>
<path d="M2570 1495 c1 -26 2 -28 11 -12 8 14 8 22 0 30 -8 8 -11 3 -11 -18z"/>
<path d="M2597 1500 c-3 -11 -1 -23 4 -26 5 -3 9 6 9 20 0 31 -6 34 -13 6z"/>
<path d="M2792 1495 c0 -16 2 -22 5 -12 2 9 2 23 0 30 -3 6 -5 -1 -5 -18z"/>
<path d="M2810 1495 c0 -16 6 -25 15 -25 8 0 15 9 15 19 0 10 -7 21 -15 25
-11 4 -15 -1 -15 -19z"/>
<path d="M2851 1492 c0 -24 1 -24 8 -7 l8 20 5 -20 c5 -19 6 -19 7 1 0 12 -6
24 -14 28 -11 4 -15 -2 -14 -22z"/>
<path d="M3102 1495 c0 -16 2 -22 5 -12 2 9 2 23 0 30 -3 6 -5 -1 -5 -18z"/>
<path d="M3492 1495 c0 -16 2 -22 5 -12 2 9 2 23 0 30 -3 6 -5 -1 -5 -18z"/>
<path d="M3813 1513 c-18 -7 -16 -43 2 -43 9 0 15 9 15 25 0 14 -1 25 -2 24
-2 0 -9 -3 -15 -6z"/>
<path d="M1121 1493 c-1 -14 5 -23 14 -23 9 0 15 9 14 23 0 21 -1 21 -8 2 l-8
-20 -5 20 c-5 18 -6 18 -7 -2z"/>
<path d="M1161 1488 c0 -22 1 -22 9 -3 l9 20 1 -20 1 -20 8 20 8 20 5 -20 c5
-18 6 -18 7 3 1 17 -4 22 -24 22 -19 0 -25 -5 -24 -22z"/>
<path d="M1525 1500 c3 -5 1 -10 -4 -10 -6 0 -11 -4 -11 -10 0 -5 11 -10 25
-10 17 0 25 6 26 18 0 14 2 14 9 -3 l9 -20 1 20 1 20 9 -20 c8 -19 9 -19 9 3
1 17 -5 22 -23 22 -15 0 -26 -7 -29 -17 -4 -17 -5 -17 -6 0 0 9 -6 17 -12 17
-5 0 -7 -4 -4 -10z"/>
<path d="M1610 1490 c0 -12 7 -20 18 -20 13 0 14 2 4 9 -11 7 -11 9 2 14 9 4
16 -1 19 -11 3 -12 5 -11 6 6 1 17 -4 22 -24 22 -18 0 -25 -5 -25 -20z"/>
<path d="M1710 1489 c0 -15 7 -18 38 -16 21 1 40 8 44 17 5 12 7 12 7 -2 1
-14 9 -18 41 -16 21 1 37 5 34 10 -3 4 0 8 5 8 6 0 11 -4 11 -10 0 -5 11 -9
25 -8 17 2 25 8 25 20 0 15 -7 18 -37 17 -21 -2 -44 -7 -52 -13 -11 -8 -13 -8
-8 0 4 8 -15 11 -63 11 -61 0 -70 -2 -70 -18z m30 1 c0 -5 -4 -10 -10 -10 -5
0 -10 5 -10 10 0 6 5 10 10 10 6 0 10 -4 10 -10z m30 0 c0 -5 -4 -10 -10 -10
-5 0 -10 5 -10 10 0 6 5 10 10 10 6 0 10 -4 10 -10z m150 0 c0 -5 -4 -10 -10
-10 -5 0 -10 5 -10 10 0 6 5 10 10 10 6 0 10 -4 10 -10z"/>
<path d="M1950 1489 c0 -13 7 -18 23 -17 31 3 31 36 0 36 -16 0 -23 -6 -23
-19z"/>
<path d="M2011 1493 c-1 -14 5 -23 14 -23 9 0 15 9 14 23 0 21 -1 21 -8 2 l-8
-20 -5 20 c-5 18 -6 18 -7 -2z"/>
<path d="M2050 1490 c0 -11 2 -20 4 -20 2 0 6 9 9 20 3 11 1 20 -4 20 -5 0 -9
-9 -9 -20z"/>
<path d="M2105 1500 c3 -5 1 -10 -4 -10 -6 0 -11 -4 -11 -10 0 -5 7 -10 15
-10 8 0 15 9 15 20 0 11 -5 20 -11 20 -5 0 -7 -4 -4 -10z"/>
<path d="M2190 1485 c0 -18 4 -23 15 -19 8 4 15 15 15 25 0 10 -7 19 -15 19
-9 0 -15 -9 -15 -25z"/>
<path d="M2253 1490 c1 -11 5 -20 9 -20 3 0 6 9 5 20 -1 11 -5 20 -9 20 -3 0
-6 -9 -5 -20z"/>
<path d="M2280 1490 c0 -13 7 -20 20 -20 13 0 20 7 20 20 0 13 -7 20 -20 20
-13 0 -20 -7 -20 -20z m30 0 c0 -5 -4 -10 -10 -10 -5 0 -10 5 -10 10 0 6 5 10
10 10 6 0 10 -4 10 -10z"/>
<path d="M2331 1488 c0 -22 1 -22 8 -3 l8 20 5 -20 c5 -18 6 -18 7 3 1 13 -5
22 -14 22 -9 0 -15 -9 -14 -22z"/>
<path d="M2370 1485 c0 -16 6 -25 15 -25 9 0 15 9 15 25 0 16 -6 25 -15 25 -9
0 -15 -9 -15 -25z"/>
<path d="M2432 1493 c2 -9 10 -18 18 -20 13 -4 13 -3 0 6 -10 7 -11 11 -2 11
6 0 12 5 12 10 0 6 -7 10 -16 10 -9 0 -14 -7 -12 -17z"/>
<path d="M2490 1492 c0 -10 7 -19 15 -19 8 0 15 9 15 19 0 10 -7 18 -15 18 -8
0 -15 -8 -15 -18z"/>
<path d="M2640 1496 c0 -8 -6 -17 -12 -19 -8 -3 -6 -6 5 -6 11 -1 17 6 17 19
0 11 -2 20 -5 20 -3 0 -5 -6 -5 -14z"/>
<path d="M2660 1500 c0 -6 4 -9 9 -5 5 3 12 -2 14 -10 4 -12 5 -12 3 1 -1 19
-26 32 -26 14z"/>
<path d="M2751 1488 c0 -22 1 -22 8 -3 l8 20 5 -20 c5 -18 6 -18 7 3 1 13 -5
22 -14 22 -9 0 -15 -9 -14 -22z"/>
<path d="M2910 1490 c0 -11 2 -20 4 -20 2 0 6 9 9 20 3 11 1 20 -4 20 -5 0 -9
-9 -9 -20z"/>
<path d="M2953 1490 c1 -21 12 -26 22 -10 3 6 1 10 -5 10 -6 0 -8 5 -5 10 3 6
2 10 -4 10 -5 0 -9 -9 -8 -20z"/>
<path d="M3033 1490 c1 -11 5 -20 9 -20 3 0 6 9 5 20 -1 11 -5 20 -9 20 -3 0
-6 -9 -5 -20z"/>
<path d="M3120 1499 c0 -5 5 -7 10 -4 6 3 10 -2 11 -12 0 -14 2 -15 6 -3 3 8
11 18 17 22 6 4 -1 8 -16 8 -16 0 -28 -5 -28 -11z"/>
<path d="M3180 1490 c0 -13 6 -20 18 -19 10 0 12 3 5 6 -7 2 -13 9 -13 14 0 6
5 7 12 3 7 -4 8 -3 4 4 -11 19 -26 14 -26 -8z"/>
<path d="M3220 1498 c0 -5 5 -6 10 -3 6 3 10 -1 10 -9 0 -9 7 -16 15 -16 8 0
15 8 15 19 0 13 -7 19 -25 19 -14 0 -25 -5 -25 -10z"/>
<path d="M3281 1493 c-1 -14 5 -23 14 -23 8 0 15 5 15 11 0 5 -4 8 -9 4 -5 -3
-12 3 -14 12 -4 14 -5 13 -6 -4z"/>
<path d="M3321 1488 c1 -18 2 -19 6 -5 2 9 8 15 12 13 4 -3 13 -1 21 5 11 6 8
9 -12 9 -23 0 -28 -4 -27 -22z"/>
<path d="M3408 1503 c6 -2 12 -9 12 -14 0 -6 -4 -7 -10 -4 -5 3 -10 1 -10 -4
0 -6 7 -11 15 -11 8 0 15 9 15 20 0 13 -6 20 -17 19 -11 0 -13 -3 -5 -6z"/>
<path d="M3440 1490 c0 -11 4 -20 8 -20 4 0 8 9 8 20 0 11 -4 20 -8 20 -4 0
-8 -9 -8 -20z"/>
<path d="M3513 1491 c-1 -16 5 -19 28 -19 34 1 47 14 29 31 -9 9 -14 8 -24 -5
-16 -22 -27 -23 -20 -3 4 8 2 15 -3 15 -5 0 -9 -9 -10 -19z m57 -1 c0 -5 -4
-10 -10 -10 -5 0 -10 5 -10 10 0 6 5 10 10 10 6 0 10 -4 10 -10z"/>
<path d="M3610 1490 c0 -13 6 -20 18 -19 10 0 12 3 5 6 -7 2 -13 9 -13 14 0 6
5 7 12 3 7 -4 8 -3 4 4 -11 19 -26 14 -26 -8z"/>
<path d="M3650 1490 c0 -11 4 -20 8 -20 4 0 8 9 9 20 1 11 -2 20 -8 20 -5 0
-9 -9 -9 -20z"/>
<path d="M3680 1490 c0 -11 4 -20 8 -20 4 0 8 9 8 20 0 11 -4 20 -8 20 -4 0
-8 -9 -8 -20z"/>
<path d="M3733 1490 c1 -11 5 -20 9 -20 3 0 6 9 5 20 -1 11 -5 20 -9 20 -3 0
-6 -9 -5 -20z"/>
<path d="M3760 1490 c0 -11 7 -20 15 -20 8 0 15 9 15 20 0 11 -7 20 -15 20 -8
0 -15 -9 -15 -20z"/>
<path d="M3843 1490 c-1 -11 4 -20 12 -20 8 0 11 7 8 20 -3 11 -8 20 -12 20
-4 0 -7 -9 -8 -20z"/>
<path d="M3895 1500 c-8 -13 3 -30 18 -30 7 0 6 4 -3 10 -10 6 -11 10 -2 10 6
0 12 5 12 10 0 6 -4 10 -9 10 -6 0 -13 -4 -16 -10z"/>
<path d="M3933 1490 c1 -11 5 -20 9 -20 3 0 6 9 5 20 -1 11 -5 20 -9 20 -3 0
-6 -9 -5 -20z"/>
<path d="M4005 1499 c-11 -16 5 -28 33 -26 16 2 27 8 27 17 0 16 -51 24 -60 9z
m25 -9 c0 -5 -4 -10 -10 -10 -5 0 -10 5 -10 10 0 6 5 10 10 10 6 0 10 -4 10
-10z m30 0 c0 -5 -4 -10 -10 -10 -5 0 -10 5 -10 10 0 6 5 10 10 10 6 0 10 -4
10 -10z"/>
<path d="M4116 1501 c-4 -6 -1 -11 6 -11 9 0 9 -3 -2 -10 -9 -6 -10 -10 -3
-10 17 0 23 14 14 29 -6 9 -11 10 -15 2z"/>
<path d="M4150 1490 c0 -11 4 -20 8 -20 4 0 8 9 9 20 1 11 -2 20 -8 20 -5 0
-9 -9 -9 -20z"/>
<path d="M4187 1503 c-13 -12 -7 -33 8 -33 8 0 15 9 15 20 0 20 -11 26 -23 13z"/>
<path d="M4221 1493 c-1 -14 5 -23 14 -23 8 0 15 5 15 11 0 5 -4 8 -9 4 -5 -3
-12 3 -14 12 -4 14 -5 13 -6 -4z"/>
<path d="M4268 1503 c6 -2 12 -9 12 -14 0 -6 -4 -7 -10 -4 -5 3 -10 1 -10 -4
0 -6 7 -11 15 -11 8 0 15 9 15 20 0 13 -6 20 -17 19 -11 0 -13 -3 -5 -6z"/>
<path d="M4302 1490 c0 -14 2 -19 5 -12 2 6 2 18 0 25 -3 6 -5 1 -5 -13z"/>
<path d="M2057 1444 c-4 -4 -7 -17 -7 -29 0 -17 6 -22 25 -22 13 0 22 3 19 8
-3 5 -1 9 5 9 5 0 12 -6 14 -12 3 -7 6 1 6 17 0 17 -3 26 -7 20 -10 -14 -36
-12 -42 3 -3 7 -9 10 -13 6z"/>
<path d="M842 1415 c0 -16 2 -22 5 -12 2 9 2 23 0 30 -3 6 -5 -1 -5 -18z"/>
<path d="M970 1431 c0 -4 -22 -6 -50 -3 -45 3 -50 2 -50 -17 0 -25 20 -28 21
-3 0 14 2 14 9 -3 l9 -20 1 20 c1 16 3 17 8 5 4 -8 22 -17 39 -18 28 -3 32 -1
27 15 -5 17 -5 17 6 1 16 -26 69 -24 67 1 -1 20 -37 26 -37 6 0 -6 -3 -6 -8 1
-9 14 -42 26 -42 15z"/>
<path d="M1110 1413 c0 -22 2 -25 10 -13 8 12 11 13 19 1 7 -11 9 -11 14 0 4
10 6 10 6 2 1 -8 16 -13 41 -13 33 0 40 3 40 20 0 11 -5 20 -11 20 -6 0 -9 -7
-5 -15 3 -8 1 -15 -4 -15 -6 0 -10 7 -10 15 0 8 -7 15 -16 15 -9 0 -12 -5 -8
-12 4 -6 -3 -4 -17 5 -36 26 -59 22 -59 -10z"/>
<path d="M1290 1415 c0 -15 6 -25 14 -25 19 0 28 14 20 34 -10 25 -34 19 -34
-9z"/>
<path d="M1491 1413 c0 -25 1 -26 9 -8 7 16 9 17 9 3 1 -12 9 -16 32 -16 20 1
26 4 17 10 -10 6 -10 10 2 19 12 8 10 9 -7 4 -12 -3 -31 -1 -43 5 -18 10 -20
8 -19 -17z"/>
<path d="M1621 1418 c-1 -23 3 -28 23 -28 19 0 23 4 19 20 -3 11 -10 20 -15
20 -5 0 -6 -4 -3 -10 3 -5 2 -10 -4 -10 -5 0 -12 8 -14 18 -3 10 -5 6 -6 -10z"/>
<path d="M1826 1425 c-11 -30 -6 -33 52 -32 49 2 57 5 57 21 0 28 -20 30 -33
4 -6 -13 -11 -17 -11 -10 -1 6 -7 12 -15 12 -8 0 -17 -6 -20 -12 -3 -7 -4 -4
-3 6 3 24 -18 32 -27 11z"/>
<path d="M2132 1415 c0 -16 2 -22 5 -12 2 9 2 23 0 30 -3 6 -5 -1 -5 -18z"/>
<path d="M2460 1415 c0 -18 5 -25 20 -25 11 0 20 4 20 10 0 5 -7 7 -15 4 -9
-4 -15 0 -15 10 0 22 17 20 32 -4 16 -25 38 -26 38 -2 0 14 -2 15 -10 2 -8
-13 -10 -13 -10 1 0 9 -7 20 -16 23 -31 12 -44 6 -44 -19z"/>
<path d="M2552 1415 c0 -16 2 -22 5 -12 2 9 2 23 0 30 -3 6 -5 -1 -5 -18z"/>
<path d="M2842 1415 c0 -16 2 -22 5 -12 2 9 2 23 0 30 -3 6 -5 -1 -5 -18z"/>
<path d="M2902 1415 c0 -16 2 -22 5 -12 2 9 2 23 0 30 -3 6 -5 -1 -5 -18z"/>
<path d="M2922 1415 c0 -16 2 -22 5 -12 2 9 2 23 0 30 -3 6 -5 -1 -5 -18z"/>
<path d="M3482 1415 c0 -16 2 -22 5 -12 2 9 2 23 0 30 -3 6 -5 -1 -5 -18z"/>
<path d="M3873 1433 c-7 -2 -13 -9 -13 -14 0 -6 4 -8 9 -4 5 3 12 -3 14 -12 3
-11 5 -8 6 10 0 15 0 27 -1 26 -2 0 -9 -3 -15 -6z"/>
<path d="M3962 1415 c0 -16 2 -22 5 -12 2 9 2 23 0 30 -3 6 -5 -1 -5 -18z"/>
<path d="M760 1420 c0 -3 5 -12 10 -20 9 -13 11 -13 20 0 6 10 10 11 10 3 0
-7 8 -13 18 -13 14 0 15 2 2 10 -10 6 -11 10 -2 10 6 0 12 4 12 10 0 5 -16 9
-35 7 -19 -1 -35 -4 -35 -7z"/>
<path d="M1250 1410 c0 -12 7 -20 18 -20 14 0 15 2 2 10 -10 6 -11 10 -2 10 6
0 12 5 12 10 0 6 -7 10 -15 10 -8 0 -15 -9 -15 -20z"/>
<path d="M1346 1414 c-22 -21 -20 -24 13 -24 24 0 29 4 28 20 -2 24 -20 26
-41 4z"/>
<path d="M1418 1408 c5 -21 18 -23 25 -5 4 10 6 10 6 0 1 -7 9 -13 19 -13 14
0 15 2 2 10 -10 6 -11 10 -2 10 6 0 12 4 12 10 0 5 -15 9 -33 7 -27 -1 -33 -6
-29 -19z"/>
<path d="M1600 1413 c0 -15 -2 -16 -10 -3 -8 13 -10 12 -10 -2 0 -10 7 -18 15
-18 8 0 15 9 15 20 0 11 -2 20 -5 20 -3 0 -5 -8 -5 -17z"/>
<path d="M1690 1418 c0 -9 5 -20 10 -23 13 -8 13 5 0 25 -8 13 -10 13 -10 -2z"/>
<path d="M1710 1420 c0 -3 5 -11 12 -18 17 -17 24 -15 25 7 1 14 -4 19 -18 18
-10 -1 -19 -4 -19 -7z"/>
<path d="M1763 1410 c1 -11 5 -20 9 -20 3 0 6 9 5 20 -1 11 -5 20 -9 20 -3 0
-6 -9 -5 -20z"/>
<path d="M1790 1410 c0 -11 4 -20 8 -20 4 0 8 9 8 20 0 11 -4 20 -8 20 -4 0
-8 -9 -8 -20z"/>
<path d="M1968 1423 c-25 -7 -31 -33 -8 -33 12 0 20 7 21 18 0 14 2 14 8 -3
l8 -20 5 20 c5 16 6 17 7 3 0 -10 6 -18 12 -18 6 0 9 8 7 18 -3 17 -29 24 -60
15z"/>
<path d="M2153 1410 c1 -11 5 -20 9 -20 3 0 6 9 5 20 -1 11 -5 20 -9 20 -3 0
-6 -9 -5 -20z"/>
<path d="M2208 1423 c6 -2 12 -9 12 -14 0 -6 -4 -7 -10 -4 -5 3 -10 1 -10 -4
0 -6 7 -11 15 -11 8 0 15 9 15 20 0 13 -6 20 -17 19 -11 0 -13 -3 -5 -6z"/>
<path d="M2260 1405 c0 -18 4 -23 15 -19 8 4 15 15 15 25 0 10 -7 19 -15 19
-9 0 -15 -9 -15 -25z"/>
<path d="M2300 1410 c0 -11 7 -20 15 -20 8 0 15 9 15 20 0 11 -7 20 -15 20 -8
0 -15 -9 -15 -20z"/>
<path d="M2341 1408 c1 -19 2 -19 6 -5 5 18 5 18 19 0 13 -17 13 -17 14 5 0
15 -6 22 -20 22 -14 0 -20 -6 -19 -22z"/>
<path d="M2393 1410 c-1 -15 4 -20 23 -20 23 0 23 1 7 20 -10 11 -20 20 -23
20 -3 0 -6 -9 -7 -20z"/>
<path d="M2573 1410 c1 -11 5 -20 9 -20 4 0 8 9 8 20 0 11 -4 20 -9 20 -6 0
-9 -9 -8 -20z"/>
<path d="M2627 1423 c-4 -3 -7 -13 -6 -22 0 -12 3 -11 9 4 l9 20 1 -20 1 -20
9 20 c7 17 9 17 9 3 1 -14 10 -18 40 -18 34 0 40 3 38 20 -1 11 -5 20 -10 20
-5 0 -7 -7 -3 -15 3 -8 1 -15 -4 -15 -6 0 -10 7 -10 15 0 8 -4 15 -10 15 -5 0
-7 -8 -3 -17 6 -17 5 -17 -14 0 -20 17 -45 22 -56 10z"/>
<path d="M2753 1411 c2 -27 57 -27 57 0 0 10 -5 19 -11 19 -5 0 -7 -4 -4 -10
3 -5 -1 -10 -9 -10 -9 0 -16 5 -16 10 0 6 -4 10 -9 10 -6 0 -9 -8 -8 -19z"/>
<path d="M2865 1420 c-8 -13 3 -30 18 -30 7 0 6 4 -3 10 -10 6 -11 10 -2 10 6
0 12 5 12 10 0 6 -4 10 -9 10 -6 0 -13 -4 -16 -10z"/>
<path d="M2943 1410 c1 -11 5 -20 9 -20 3 0 6 9 5 20 -1 11 -5 20 -9 20 -3 0
-6 -9 -5 -20z"/>
<path d="M3010 1410 c0 -11 2 -20 4 -20 2 0 6 9 9 20 3 11 1 20 -4 20 -5 0 -9
-9 -9 -20z"/>
<path d="M3040 1418 c0 -5 5 -6 10 -3 6 3 10 0 10 -8 0 -8 9 -14 23 -13 36 2
27 30 -10 32 -18 1 -33 -3 -33 -8z m60 -8 c0 -5 -4 -10 -10 -10 -5 0 -10 5
-10 10 0 6 5 10 10 10 6 0 10 -4 10 -10z"/>
<path d="M3120 1419 c0 -5 5 -7 10 -4 6 3 10 8 10 11 0 2 -4 4 -10 4 -5 0 -10
-5 -10 -11z"/>
<path d="M3155 1420 c-8 -13 3 -30 18 -30 7 0 6 4 -3 10 -13 9 -13 11 0 20 9
6 10 10 3 10 -6 0 -15 -4 -18 -10z"/>
<path d="M3210 1414 c0 -8 -4 -12 -10 -9 -5 3 -10 1 -10 -4 0 -6 7 -11 15 -11
8 0 15 9 15 20 0 11 -2 20 -5 20 -3 0 -5 -7 -5 -16z"/>
<path d="M3233 1410 c1 -11 5 -20 9 -20 3 0 6 9 5 20 -1 11 -5 20 -9 20 -3 0
-6 -9 -5 -20z"/>
<path d="M3281 1408 c0 -22 1 -22 8 -3 l8 20 5 -20 c5 -18 6 -18 7 3 1 13 -5
22 -14 22 -9 0 -15 -9 -14 -22z"/>
<path d="M3320 1409 c0 -13 8 -17 31 -17 20 1 26 4 17 10 -11 6 -11 10 0 16 8
6 2 9 -18 9 -22 0 -30 -5 -30 -18z"/>
<path d="M3441 1408 c13 -24 29 -23 29 1 0 13 -6 19 -19 18 -16 -1 -18 -5 -10
-19z"/>
<path d="M3501 1413 c-1 -14 5 -23 14 -23 9 0 15 9 14 23 0 21 -1 21 -8 2 l-8
-20 -5 20 c-5 18 -6 18 -7 -2z"/>
<path d="M3540 1410 c0 -11 4 -20 9 -20 5 0 7 9 4 20 -3 11 -7 20 -9 20 -2 0
-4 -9 -4 -20z"/>
<path d="M3580 1420 c12 -8 12 -12 2 -18 -9 -6 -3 -9 17 -10 24 0 31 4 31 19
0 10 -4 19 -10 19 -5 0 -7 -8 -3 -17 6 -17 5 -17 -14 0 -11 9 -24 17 -29 17
-5 0 -2 -5 6 -10z"/>
<path d="M3640 1410 c0 -11 4 -20 9 -20 5 0 7 9 4 20 -3 11 -7 20 -9 20 -2 0
-4 -9 -4 -20z"/>
<path d="M3725 1420 c-8 -13 3 -30 18 -30 7 0 6 4 -3 10 -10 6 -11 10 -2 10 6
0 12 5 12 10 0 6 -4 10 -9 10 -6 0 -13 -4 -16 -10z"/>
<path d="M3760 1410 c0 -11 4 -20 8 -20 4 0 8 9 8 20 0 11 -4 20 -8 20 -4 0
-8 -9 -8 -20z"/>
<path d="M3830 1416 c0 -8 4 -17 8 -20 4 -2 8 4 8 15 0 10 -4 19 -8 19 -4 0
-8 -6 -8 -14z"/>
<path d="M3903 1410 c1 -11 5 -20 9 -20 3 0 6 9 5 20 -1 11 -5 20 -9 20 -3 0
-6 -9 -5 -20z"/>
<path d="M3990 1420 c12 -8 13 -12 2 -19 -11 -7 -11 -9 2 -14 12 -5 16 0 16
18 0 17 -6 25 -17 25 -15 0 -16 -2 -3 -10z"/>
<path d="M4040 1416 c0 -8 -6 -17 -12 -19 -8 -3 -6 -6 5 -6 11 -1 17 6 17 19
0 11 -2 20 -5 20 -3 0 -5 -6 -5 -14z"/>
<path d="M4060 1410 c0 -11 4 -20 8 -20 4 0 8 9 9 20 1 11 -2 20 -8 20 -5 0
-9 -9 -9 -20z"/>
<path d="M4113 1410 c1 -21 12 -26 22 -10 3 6 1 10 -5 10 -6 0 -8 5 -5 10 3 6
2 10 -4 10 -5 0 -9 -9 -8 -20z"/>
<path d="M4213 1410 c-1 -11 4 -20 12 -20 8 0 11 7 8 20 -3 11 -8 20 -12 20
-4 0 -7 -9 -8 -20z"/>
<path d="M4258 1423 c6 -2 18 -2 25 0 6 3 1 5 -13 5 -14 0 -19 -2 -12 -5z"/>
<path d="M4305 1420 c-8 -13 3 -30 18 -30 7 0 6 4 -3 10 -10 6 -11 10 -2 10 6
0 12 5 12 10 0 6 -4 10 -9 10 -6 0 -13 -4 -16 -10z"/>
<path d="M4340 1410 c0 -11 4 -20 9 -20 5 0 7 9 4 20 -3 11 -7 20 -9 20 -2 0
-4 -9 -4 -20z"/>
<path d="M3410 1406 c0 -9 5 -16 10 -16 6 0 10 4 10 9 0 6 -4 13 -10 16 -5 3
-10 -1 -10 -9z"/>
<path d="M846 1349 c-24 -23 -14 -37 29 -37 28 0 35 4 35 20 0 15 -5 19 -19
15 -11 -3 -21 1 -23 8 -2 8 -9 7 -22 -6z"/>
<path d="M921 1345 c-1 -28 2 -31 33 -33 27 -2 35 2 39 19 5 19 2 21 -28 17
-25 -3 -35 0 -39 12 -2 8 -4 1 -5 -15z"/>
<path d="M1042 1335 c0 -16 2 -22 5 -12 2 9 2 23 0 30 -3 6 -5 -1 -5 -18z"/>
<path d="M1355 1346 c-26 -19 -9 -36 36 -36 32 0 39 3 39 20 0 11 -5 20 -11
20 -5 0 -7 -4 -4 -10 9 -15 -12 -12 -28 4 -12 12 -18 13 -32 2z m15 -16 c0 -5
-4 -10 -10 -10 -5 0 -10 5 -10 10 0 6 5 10 10 10 6 0 10 -4 10 -10z"/>
<path d="M1520 1336 c0 -30 24 -35 35 -8 7 16 8 15 15 -3 8 -17 9 -16 9 8 1
24 -1 26 -18 17 -11 -5 -21 -13 -23 -17 -3 -5 -3 -3 -2 4 2 7 -1 15 -6 18 -6
4 -10 -5 -10 -19z"/>
<path d="M2020 1351 c0 -4 -16 -7 -35 -4 -32 3 -35 1 -35 -22 0 -18 4 -24 12
-19 7 5 25 7 40 6 24 -2 28 1 28 23 0 14 -2 25 -5 25 -3 0 -5 -4 -5 -9z"/>
<path d="M2042 1335 c0 -16 2 -22 5 -12 2 9 2 23 0 30 -3 6 -5 -1 -5 -18z"/>
<path d="M2430 1350 c0 -5 -7 -7 -15 -4 -10 4 -15 0 -15 -15 0 -14 6 -21 20
-21 15 0 20 7 20 25 0 14 -2 25 -5 25 -3 0 -5 -4 -5 -10z"/>
<path d="M2470 1335 c0 -20 4 -24 25 -23 20 2 25 8 24 28 0 14 -3 19 -6 13 -3
-9 -10 -10 -24 -3 -16 9 -19 7 -19 -15z m30 -5 c0 -5 -4 -10 -10 -10 -5 0 -10
5 -10 10 0 6 5 10 10 10 6 0 10 -4 10 -10z"/>
<path d="M2621 1351 c-7 -5 -22 -6 -32 -4 -15 4 -19 0 -18 -18 0 -22 1 -23 9
-4 6 14 9 15 9 5 1 -9 11 -17 26 -18 21 -1 25 3 25 23 0 28 0 28 -19 16z m9
-21 c0 -5 -4 -10 -10 -10 -5 0 -10 5 -10 10 0 6 5 10 10 10 6 0 10 -4 10 -10z"/>
<path d="M2792 1335 c0 -16 2 -22 5 -12 2 9 2 23 0 30 -3 6 -5 -1 -5 -18z"/>
<path d="M2812 1335 c0 -16 2 -22 5 -12 2 9 2 23 0 30 -3 6 -5 -1 -5 -18z"/>
<path d="M2950 1349 c0 -5 -5 -7 -10 -4 -6 4 -17 1 -25 -5 -11 -9 -15 -9 -15
-1 0 6 -4 11 -9 11 -6 0 -9 -8 -8 -18 1 -15 9 -19 39 -18 33 0 38 3 38 23 0
13 -2 23 -5 23 -3 0 -5 -5 -5 -11z m-10 -19 c0 -5 -4 -10 -10 -10 -5 0 -10 5
-10 10 0 6 5 10 10 10 6 0 10 -4 10 -10z"/>
<path d="M2972 1335 c0 -16 2 -22 5 -12 2 9 2 23 0 30 -3 6 -5 -1 -5 -18z"/>
<path d="M2992 1335 c0 -16 2 -22 5 -12 2 9 2 23 0 30 -3 6 -5 -1 -5 -18z"/>
<path d="M3040 1340 c0 -11 -5 -20 -11 -20 -6 0 -9 7 -5 15 3 8 1 15 -4 15 -6
0 -10 -9 -10 -20 0 -13 7 -20 20 -20 15 0 20 7 20 25 0 14 -2 25 -5 25 -3 0
-5 -9 -5 -20z"/>
<path d="M3133 1347 c-13 -5 -23 -14 -23 -19 0 -5 -7 -2 -16 6 -21 22 -34 20
-34 -4 0 -11 4 -20 10 -20 5 0 7 8 4 18 -5 15 -4 15 5 1 16 -24 108 -25 114
-1 4 16 5 16 6 0 1 -11 9 -18 21 -18 20 0 20 0 2 20 -12 13 -25 18 -36 14 -10
-4 -21 -2 -25 3 -4 7 -13 7 -28 0z m17 -17 c0 -5 -4 -10 -10 -10 -5 0 -10 5
-10 10 0 6 5 10 10 10 6 0 10 -4 10 -10z"/>
<path d="M3265 1339 c-4 -11 -4 -23 -1 -26 3 -4 6 2 6 12 0 18 1 18 15 -1 9
-12 14 -14 15 -6 0 7 -6 20 -14 28 -13 12 -16 11 -21 -7z"/>
<path d="M3352 1335 c0 -16 2 -22 5 -12 2 9 2 23 0 30 -3 6 -5 -1 -5 -18z"/>
<path d="M3372 1335 c0 -16 2 -22 5 -12 2 9 2 23 0 30 -3 6 -5 -1 -5 -18z"/>
<path d="M3805 1350 c-3 -5 -1 -10 4 -10 6 0 11 5 11 10 0 6 -2 10 -4 10 -3 0
-8 -4 -11 -10z"/>
<path d="M1061 1328 c0 -22 1 -22 8 -3 l8 20 5 -20 c5 -18 6 -18 7 3 1 13 -5
22 -14 22 -9 0 -15 -9 -14 -22z"/>
<path d="M1120 1330 c0 -17 7 -20 39 -20 26 0 41 5 45 16 3 8 10 12 16 9 6 -4
8 -10 6 -14 -3 -4 8 -8 24 -9 25 -1 30 3 29 21 0 21 -1 21 -9 2 l-9 -20 0 20
c-1 17 -3 17 -11 5 -6 -10 -10 -11 -10 -2 0 20 -68 15 -73 -5 -4 -17 -5 -17
-6 0 -2 25 -41 23 -41 -3z m30 0 c0 -5 -4 -10 -10 -10 -5 0 -10 5 -10 10 0 6
5 10 10 10 6 0 10 -4 10 -10z"/>
<path d="M1293 1330 c2 -24 19 -21 23 3 1 9 -4 17 -11 17 -8 0 -13 -9 -12 -20z"/>
<path d="M1441 1328 c0 -22 1 -22 9 -3 l9 20 1 -20 1 -20 8 20 8 20 5 -20 c5
-18 6 -18 7 3 1 17 -4 22 -24 22 -19 0 -25 -5 -24 -22z"/>
<path d="M1593 1330 c1 -11 5 -20 9 -20 3 0 6 9 5 20 -1 11 -5 20 -9 20 -3 0
-6 -9 -5 -20z"/>
<path d="M1620 1329 c0 -19 27 -25 85 -21 26 3 65 23 65 34 0 11 -43 -1 -51
-14 -4 -6 -8 -5 -11 2 -2 7 -23 14 -46 15 -35 2 -42 -1 -42 -16z"/>
<path d="M1803 1330 c1 -11 5 -20 9 -20 3 0 6 9 5 20 -1 11 -5 20 -9 20 -3 0
-6 -9 -5 -20z"/>
<path d="M1830 1330 c0 -12 7 -20 18 -20 14 0 15 2 2 10 -10 6 -11 10 -2 10 6
0 12 5 12 10 0 6 -7 10 -15 10 -8 0 -15 -9 -15 -20z"/>
<path d="M1871 1328 c0 -22 1 -22 9 -3 l9 20 1 -20 1 -20 8 20 8 20 5 -20 c5
-18 6 -18 7 3 1 17 -4 22 -24 22 -19 0 -25 -5 -24 -22z"/>
<path d="M2060 1330 c0 -12 7 -20 18 -20 14 0 15 2 2 10 -10 6 -11 10 -2 10 6
0 12 5 12 10 0 6 -7 10 -15 10 -8 0 -15 -9 -15 -20z"/>
<path d="M2101 1328 c0 -22 1 -22 9 -3 l9 20 1 -20 1 -20 8 20 8 20 5 -20 c5
-18 6 -18 7 3 1 17 -4 22 -24 22 -19 0 -25 -5 -24 -22z"/>
<path d="M2160 1330 c0 -12 7 -20 18 -20 14 0 15 2 2 10 -11 7 -11 10 -2 10 7
0 10 5 7 10 -10 17 -25 11 -25 -10z"/>
<path d="M2203 1330 c1 -11 5 -20 9 -20 3 0 6 9 5 20 -1 11 -5 20 -9 20 -3 0
-6 -9 -5 -20z"/>
<path d="M2230 1331 c0 -10 7 -21 15 -25 11 -4 15 1 15 19 0 16 -6 25 -15 25
-8 0 -15 -9 -15 -19z"/>
<path d="M2271 1333 c-1 -14 5 -23 14 -23 9 0 15 9 14 23 0 21 -1 21 -8 2 l-8
-20 -5 20 c-5 18 -6 18 -7 -2z"/>
<path d="M2310 1330 c0 -12 7 -20 18 -20 14 0 15 2 2 10 -11 7 -11 10 -2 10 7
0 10 5 7 10 -10 17 -25 11 -25 -10z"/>
<path d="M2367 1332 c1 -8 3 -16 3 -18 0 -3 5 -2 10 1 6 3 10 11 10 16 0 6 -4
8 -9 5 -5 -4 -11 -3 -14 1 -2 5 -2 2 0 -5z"/>
<path d="M2541 1333 c10 -11 10 -14 2 -9 -7 4 -13 2 -13 -3 0 -6 7 -11 15 -11
8 0 15 9 15 20 0 12 -7 20 -16 20 -14 0 -15 -2 -3 -17z"/>
<path d="M2653 1335 c-3 -9 -3 -19 1 -22 3 -4 6 2 7 13 0 18 1 18 9 -1 8 -19
9 -19 9 3 1 25 -17 30 -26 7z"/>
<path d="M2711 1328 c0 -22 1 -22 8 -3 l8 20 5 -20 c5 -18 6 -18 7 3 1 13 -5
22 -14 22 -9 0 -15 -9 -14 -22z"/>
<path d="M2751 1333 c-1 -14 5 -23 14 -23 9 0 15 9 14 23 0 21 -1 21 -8 2 l-8
-20 -5 20 c-5 18 -6 18 -7 -2z"/>
<path d="M2833 1330 c-1 -11 4 -20 12 -20 8 0 11 7 8 20 -3 11 -8 20 -12 20
-4 0 -7 -9 -8 -20z"/>
<path d="M3311 1333 c-1 -14 5 -23 14 -23 9 0 15 9 14 23 0 21 -1 21 -8 2 l-8
-20 -5 20 c-5 18 -6 18 -7 -2z"/>
<path d="M3393 1330 c-1 -12 4 -20 13 -20 9 0 14 7 12 17 -4 24 -23 27 -25 3z"/>
<path d="M3440 1336 c0 -8 4 -17 8 -20 4 -2 8 4 8 15 0 10 -4 19 -8 19 -4 0
-8 -6 -8 -14z"/>
<path d="M3470 1331 c0 -12 6 -21 16 -21 9 0 14 7 12 17 -5 25 -28 28 -28 4z"/>
<path d="M3511 1328 c1 -19 2 -19 6 -5 4 17 6 17 17 2 10 -15 12 -14 12 4 0
14 -7 21 -18 21 -12 0 -18 -7 -17 -22z"/>
<path d="M3560 1331 c0 -12 6 -21 16 -21 9 0 14 7 12 17 -5 25 -28 28 -28 4z"/>
<path d="M3600 1330 c0 -11 2 -20 4 -20 2 0 6 9 9 20 3 11 1 20 -4 20 -5 0 -9
-9 -9 -20z"/>
<path d="M3645 1340 c-8 -13 3 -30 18 -30 7 0 6 4 -3 10 -10 6 -11 10 -2 10 6
0 12 5 12 10 0 6 -4 10 -9 10 -6 0 -13 -4 -16 -10z"/>
<path d="M3680 1330 c0 -11 2 -20 4 -20 2 0 6 9 9 20 3 11 1 20 -4 20 -5 0 -9
-9 -9 -20z"/>
<path d="M3717 1333 c5 -12 3 -14 -7 -8 -9 5 -11 4 -6 -3 11 -19 26 -14 26 8
0 11 -4 20 -10 20 -5 0 -6 -7 -3 -17z"/>
<path d="M3740 1330 c0 -11 4 -20 8 -20 4 0 8 9 8 20 0 11 -4 20 -8 20 -4 0
-8 -9 -8 -20z"/>
<path d="M3833 1331 c-1 -16 5 -19 28 -19 20 1 26 4 17 10 -10 6 -10 10 2 18
9 6 10 10 3 10 -7 0 -17 -8 -22 -17 -10 -17 -10 -17 -11 0 0 23 -15 22 -17 -2z"/>
<path d="M3959 1348 c-10 -33 1 -52 16 -28 3 6 1 10 -5 10 -6 0 -8 5 -5 10 3
6 4 10 1 10 -3 0 -6 -1 -7 -2z"/>
<path d="M4006 1341 c-4 -6 -1 -11 6 -11 9 0 9 -3 -2 -10 -13 -8 -12 -10 3
-10 19 0 21 8 8 29 -6 9 -11 10 -15 2z"/>
<path d="M4060 1330 c0 -11 4 -20 8 -20 4 0 8 9 9 20 1 11 -2 20 -8 20 -5 0
-9 -9 -9 -20z"/>
<path d="M4094 1339 c-3 -6 1 -18 10 -27 15 -15 16 -14 16 11 0 27 -13 36 -26
16z"/>
<path d="M4135 1340 c-8 -13 3 -30 18 -30 7 0 6 4 -3 10 -10 6 -11 10 -2 10 6
0 12 5 12 10 0 6 -4 10 -9 10 -6 0 -13 -4 -16 -10z"/>
<path d="M4173 1330 c1 -11 5 -20 9 -20 3 0 6 9 5 20 -1 11 -5 20 -9 20 -3 0
-6 -9 -5 -20z"/>
<path d="M4200 1330 c0 -15 7 -20 25 -20 18 0 25 5 25 20 0 11 -4 20 -10 20
-5 0 -7 -6 -4 -13 3 -8 -2 -14 -11 -14 -9 0 -14 6 -11 14 3 7 1 13 -4 13 -6 0
-10 -9 -10 -20z"/>
<path d="M4263 1330 c1 -11 5 -20 9 -20 3 0 6 9 5 20 -1 11 -5 20 -9 20 -3 0
-6 -9 -5 -20z"/>
<path d="M1528 1280 c-1 -5 -21 -11 -43 -12 -44 -4 -57 -31 -17 -36 15 -2 22
2 22 12 0 9 5 16 10 16 6 0 10 -7 10 -15 0 -8 7 -15 15 -15 10 0 15 10 15 30
0 30 -5 39 -12 20z"/>
<path d="M1362 1255 c0 -16 2 -22 5 -12 2 9 2 23 0 30 -3 6 -5 -1 -5 -18z"/>
<path d="M1671 1260 c-1 -20 4 -26 24 -28 21 -1 25 3 25 23 0 22 -3 24 -19 15
-14 -7 -21 -6 -24 3 -3 6 -6 1 -6 -13z"/>
<path d="M1783 1273 c-18 -7 -16 -43 2 -43 9 0 15 9 15 25 0 14 -1 25 -2 24
-2 0 -9 -3 -15 -6z"/>
<path d="M1913 1273 c-18 -7 -16 -43 2 -43 9 0 15 9 15 25 0 14 -1 25 -2 24
-2 0 -9 -3 -15 -6z"/>
<path d="M2279 1263 c0 -11 -3 -13 -6 -5 -8 19 -22 14 -20 -8 1 -16 8 -20 37
-19 19 0 29 3 23 6 -7 2 -13 13 -13 24 0 24 -20 25 -21 2z"/>
<path d="M2340 1255 c0 -18 5 -25 20 -25 11 0 20 5 20 11 0 5 -4 7 -10 4 -5
-3 -10 2 -10 12 1 16 3 16 19 -4 21 -25 61 -27 62 -3 0 10 3 9 9 -5 8 -19 9
-19 9 3 1 20 -3 22 -34 19 -20 -3 -38 0 -41 4 -3 5 -14 9 -25 9 -14 0 -19 -7
-19 -25z m75 -5 c3 -5 1 -10 -4 -10 -6 0 -11 5 -11 10 0 6 2 10 4 10 3 0 8 -4
11 -10z"/>
<path d="M3180 1271 c0 -6 5 -13 11 -17 8 -4 7 -9 -2 -15 -8 -5 -2 -7 19 -7
17 1 29 5 26 10 -3 4 0 8 5 8 6 0 11 -4 11 -10 0 -5 9 -10 20 -10 15 0 20 7
20 26 0 16 -5 24 -12 21 -7 -2 -12 -12 -10 -22 3 -17 2 -17 -13 -1 -18 18 -35
21 -35 6 0 -5 -7 -7 -16 -3 -13 5 -13 7 -2 14 10 7 9 9 -4 9 -10 0 -18 -4 -18
-9z"/>
<path d="M3342 1268 c-17 -17 -15 -38 3 -38 9 0 15 9 15 25 0 29 -1 30 -18 13z"/>
<path d="M3472 1255 c0 -16 2 -22 5 -12 2 9 2 23 0 30 -3 6 -5 -1 -5 -18z"/>
<path d="M1381 1248 c0 -13 3 -17 6 -9 5 11 7 11 14 0 6 -10 9 -8 9 9 0 13 -6
22 -15 22 -9 0 -15 -9 -14 -22z"/>
<path d="M1420 1250 c0 -11 4 -20 8 -20 4 0 8 9 8 20 0 11 -4 20 -8 20 -4 0
-8 -9 -8 -20z"/>
<path d="M1551 1253 c-1 -14 5 -23 14 -23 9 0 15 9 14 23 0 21 -1 21 -8 2 l-8
-20 -5 20 c-5 18 -6 18 -7 -2z"/>
<path d="M1591 1248 c0 -22 1 -22 9 -3 l9 20 1 -20 1 -20 8 20 8 20 5 -20 c5
-18 6 -18 7 3 1 17 -4 22 -24 22 -19 0 -25 -5 -24 -22z"/>
<path d="M1811 1248 c0 -22 1 -22 8 -3 l8 20 5 -20 c5 -18 6 -18 7 3 1 13 -5
22 -14 22 -9 0 -15 -9 -14 -22z"/>
<path d="M1850 1251 c0 -15 6 -21 21 -21 25 0 22 33 -4 38 -12 2 -17 -3 -17
-17z m30 -1 c0 -5 -4 -10 -10 -10 -5 0 -10 5 -10 10 0 6 5 10 10 10 6 0 10 -4
10 -10z"/>
<path d="M1941 1253 c-1 -14 5 -23 14 -23 8 0 15 8 15 18 0 14 -2 14 -9 3 -7
-11 -10 -10 -14 5 -4 16 -5 16 -6 -3z"/>
<path d="M1981 1248 c0 -22 1 -22 8 -3 l8 20 5 -20 c5 -18 6 -18 7 3 1 13 -5
22 -14 22 -9 0 -15 -9 -14 -22z"/>
<path d="M2020 1250 c0 -11 4 -20 8 -20 4 0 8 9 8 20 0 11 -4 20 -8 20 -4 0
-8 -9 -8 -20z"/>
<path d="M2071 1246 c0 -21 1 -21 9 -1 6 14 9 16 9 4 1 -11 13 -16 44 -17 31
-2 38 0 27 8 -12 8 -13 12 -2 19 9 5 -5 8 -37 8 -45 0 -51 -2 -50 -21z"/>
<path d="M2197 1263 c-10 -10 -8 -33 2 -33 5 0 12 8 14 18 4 16 5 16 6 0 1
-21 21 -24 21 -4 0 8 -7 17 -16 20 -19 7 -19 7 -27 -1z"/>
<path d="M2470 1250 c0 -12 7 -20 18 -20 14 0 15 2 2 10 -10 6 -11 10 -2 10 6
0 12 5 12 10 0 6 -7 10 -15 10 -8 0 -15 -9 -15 -20z"/>
<path d="M2510 1250 c0 -11 4 -20 8 -20 4 0 8 9 8 20 0 11 -4 20 -8 20 -4 0
-8 -9 -8 -20z"/>
<path d="M2561 1248 c0 -22 1 -22 8 -3 l8 20 5 -20 c5 -18 6 -18 7 3 1 13 -5
22 -14 22 -9 0 -15 -9 -14 -22z"/>
<path d="M2600 1250 c0 -11 7 -20 15 -20 8 0 15 9 15 20 0 11 -7 20 -15 20 -8
0 -15 -9 -15 -20z"/>
<path d="M2641 1248 c0 -22 1 -22 8 -3 l8 20 5 -20 c5 -18 6 -18 7 3 1 13 -5
22 -14 22 -9 0 -15 -9 -14 -22z"/>
<path d="M2703 1250 c1 -11 5 -20 9 -20 3 0 6 9 5 20 -1 11 -5 20 -9 20 -3 0
-6 -9 -5 -20z"/>
<path d="M2735 1260 c-8 -13 3 -30 18 -30 7 0 6 4 -3 10 -10 6 -11 10 -2 10 6
0 12 5 12 10 0 6 -4 10 -9 10 -6 0 -13 -4 -16 -10z"/>
<path d="M2771 1248 c0 -22 1 -22 9 -3 l9 20 1 -20 1 -20 8 20 8 20 5 -20 c5
-18 6 -18 7 3 1 17 -4 22 -24 22 -19 0 -25 -5 -24 -22z"/>
<path d="M2830 1244 c0 -28 3 -29 24 -8 9 8 16 11 16 5 0 -6 9 -11 20 -11 11
0 20 6 20 14 0 8 5 16 11 18 6 2 -12 4 -40 5 -47 1 -51 -1 -51 -23z"/>
<path d="M2951 1248 c0 -22 1 -22 9 -3 l9 20 1 -20 1 -20 8 20 8 20 5 -20 c5
-18 6 -18 7 3 1 17 -4 22 -24 22 -19 0 -25 -5 -24 -22z"/>
<path d="M3010 1249 c0 -11 7 -19 18 -19 13 0 14 2 4 9 -11 7 -11 9 2 14 9 4
16 -1 19 -11 4 -13 5 -12 6 4 1 17 -5 22 -24 22 -18 0 -25 -6 -25 -19z"/>
<path d="M3071 1253 c-1 -14 5 -23 14 -23 9 0 15 9 14 23 0 21 -1 21 -8 2 l-8
-20 -5 20 c-5 18 -6 18 -7 -2z"/>
<path d="M3113 1250 c1 -11 5 -20 9 -20 3 0 6 9 5 20 -1 11 -5 20 -9 20 -3 0
-6 -9 -5 -20z"/>
<path d="M3395 1260 c-8 -13 3 -30 18 -30 7 0 6 4 -3 10 -10 6 -11 10 -2 10 6
0 12 5 12 10 0 6 -4 10 -9 10 -6 0 -13 -4 -16 -10z"/>
<path d="M3431 1248 c0 -22 1 -22 8 -3 l8 20 5 -20 c5 -18 6 -18 7 3 1 13 -5
22 -14 22 -9 0 -15 -9 -14 -22z"/>
<path d="M3491 1248 c0 -22 1 -22 9 -3 l9 20 1 -20 1 -20 8 20 8 20 5 -20 c5
-18 6 -18 7 3 1 17 -4 22 -24 22 -19 0 -25 -5 -24 -22z"/>
<path d="M3570 1245 c0 -18 4 -23 15 -19 8 4 15 15 15 25 0 10 -7 19 -15 19
-9 0 -15 -9 -15 -25z"/>
<path d="M3611 1253 c-1 -14 5 -23 14 -23 9 0 15 9 14 23 0 21 -1 21 -8 2 l-8
-20 -5 20 c-5 18 -6 18 -7 -2z"/>
<path d="M3651 1248 c0 -21 1 -21 8 -4 7 18 8 18 14 3 4 -11 18 -17 38 -17 24
0 30 3 25 16 -3 9 -6 17 -6 19 0 9 -40 -9 -40 -19 0 -6 -5 -3 -11 7 -14 24
-29 21 -28 -5z"/>
<path d="M3311 1244 c0 -11 3 -14 6 -6 3 7 2 16 -1 19 -3 4 -6 -2 -5 -13z"/>
</g>
</svg>
